<svg width="130" height="35" viewBox="0 0 130 35" fill="none" xmlns="http://www.w3.org/2000/svg">
<path d="M34.3717 0.0450757V4.38979C34.0765 4.38979 33.8081 4.38979 33.5262 4.38979C28.6543 4.38979 23.7959 4.38979 18.924 4.38979C16.8974 4.38979 14.8976 4.61226 12.9784 5.30584C7.82468 7.17721 4.40228 12.2155 4.42912 17.6595C4.46939 24.5299 9.30101 29.3588 14.9245 31.0862C15.3405 31.2171 15.77 31.2825 16.2934 31.4003C15.3271 30.8245 14.4413 30.3403 13.6092 29.7907C8.71048 26.5583 6.7644 19.3084 9.87811 13.5896C12.361 9.02241 16.3874 6.82388 21.568 6.65375C25.809 6.5098 30.0501 6.62758 34.3449 6.62758V10.933C34.1167 10.933 33.8752 10.933 33.6336 10.933C29.7817 10.933 25.9433 10.933 22.0914 10.933C19.3803 10.933 16.9913 11.7182 15.1124 13.7335C12.616 16.3901 12.0792 20.6301 13.7166 24.0719C15.5955 27.9978 19.8769 29.5944 23.0845 29.6075C22.8027 29.5028 22.6685 29.4373 22.5209 29.3981C16.1726 27.5267 15.5687 20.9311 18.0919 17.1622C19.7695 14.6627 22.1182 13.2363 25.1917 13.1577C28.2249 13.0792 31.258 13.1446 34.3583 13.1446V17.5155C34.1033 17.5155 33.8483 17.5155 33.6067 17.5155C31.0567 17.5155 28.5067 17.5155 25.9567 17.5155C23.3261 17.5286 21.5008 18.9681 21.1787 21.2452C20.8298 23.6531 22.6953 25.9301 25.1648 26.1395C27.688 26.3489 29.8622 24.4775 29.9562 22.0173C29.983 21.2583 29.9562 20.4993 29.9562 19.6879H34.3583C34.5194 21.9649 34.4657 24.1896 33.2309 26.1919C31.097 29.6336 28.198 32.264 24.3327 33.7559C16.119 36.9359 7.03283 33.8606 2.48305 26.3489C-2.95252 17.3716 0.899357 5.90782 10.4955 1.57619C12.8845 0.47693 15.4345 0.0189027 18.065 0.00581622C23.3261 -0.00727027 28.5872 0.00581622 33.8483 0.00581622C34.0094 0.00581622 34.1704 0.0319892 34.3717 0.0450757Z" fill="url(#paint0_linear_1049_3008)"/>
<path d="M50.9562 14.7584C49.8953 14.7584 48.9916 14.5392 48.2451 14.1007C47.4985 13.6525 46.9288 13.0338 46.5359 12.2446C46.143 11.4456 45.9465 10.5151 45.9465 9.45308C45.9465 8.66386 46.0546 7.94772 46.2707 7.30465C46.4966 6.65184 46.8208 6.09159 47.2431 5.62391C47.6753 5.15622 48.2009 4.80058 48.8197 4.557C49.4385 4.30367 50.1409 4.177 50.9267 4.177C51.7223 4.177 52.4345 4.30367 53.0632 4.557C53.6918 4.81033 54.2124 5.19032 54.625 5.69698C55.0474 6.1939 55.3224 6.81748 55.4501 7.56773H53.3136C53.2351 7.24619 53.0926 6.98312 52.8863 6.77851C52.6801 6.56415 52.4198 6.40338 52.1054 6.2962C51.8009 6.18903 51.4522 6.13544 51.0593 6.13544C50.5191 6.13544 50.0623 6.228 49.689 6.41313C49.3158 6.59825 49.0113 6.85158 48.7755 7.17312C48.5496 7.48491 48.3826 7.84541 48.2745 8.25464C48.1763 8.65412 48.1272 9.06822 48.1272 9.49693C48.1272 10.0815 48.2254 10.6272 48.4219 11.1338C48.6183 11.6307 48.9278 12.0351 49.3501 12.3469C49.7725 12.6489 50.3324 12.8 51.0298 12.8C51.4915 12.8 51.8992 12.7318 52.2528 12.5954C52.6162 12.4492 52.906 12.2348 53.1221 11.9523C53.348 11.66 53.4757 11.3092 53.5052 10.9H50.6615V9.10232H55.6711V9.67231C55.6711 10.7246 55.4943 11.6307 55.1407 12.3907C54.7871 13.1507 54.2615 13.7353 53.5641 14.1446C52.8667 14.5538 51.9974 14.7584 50.9562 14.7584Z" fill="#171717"/>
<path d="M62.3334 14.7584C61.2627 14.7584 60.3394 14.5343 59.5634 14.0861C58.7972 13.6379 58.2078 13.0192 57.7953 12.23C57.3925 11.431 57.1912 10.5151 57.1912 9.48232C57.1912 8.43002 57.3974 7.50439 57.81 6.70543C58.2324 5.90647 58.8316 5.28776 59.6076 4.8493C60.3836 4.4011 61.3069 4.177 62.3776 4.177C63.4385 4.177 64.352 4.39623 65.1182 4.83469C65.8843 5.27314 66.4737 5.88698 66.8863 6.6762C67.3086 7.46542 67.5198 8.38618 67.5198 9.43847C67.5198 10.4713 67.3086 11.392 66.8863 12.2007C66.4737 12.9997 65.8794 13.6282 65.1034 14.0861C64.3372 14.5343 63.4139 14.7584 62.3334 14.7584ZM62.3629 12.8C63.0701 12.8 63.6447 12.6392 64.0868 12.3177C64.5288 11.9961 64.848 11.582 65.0445 11.0754C65.2508 10.5687 65.3539 10.0377 65.3539 9.48232C65.3539 9.07309 65.295 8.66874 65.1771 8.26925C65.069 7.86977 64.8972 7.50926 64.6614 7.18773C64.4257 6.8662 64.1162 6.61287 63.7331 6.42774C63.3501 6.23287 62.8884 6.13544 62.3481 6.13544C61.6507 6.13544 61.081 6.2962 60.639 6.61774C60.1969 6.92953 59.8679 7.33875 59.6518 7.84541C59.4455 8.35207 59.3424 8.89284 59.3424 9.4677C59.3424 10.0426 59.4455 10.5833 59.6518 11.09C59.8679 11.5966 60.1969 12.0107 60.639 12.3323C61.0908 12.6441 61.6654 12.8 62.3629 12.8Z" fill="#171717"/>
<path d="M69.4565 14.6415V4.29392H71.5635V12.7123H76.853V14.6415H69.4565Z" fill="#171717"/>
<path d="M78.4996 14.6415V4.29392H82.4336C83.524 4.29392 84.4522 4.49854 85.2184 4.90776C85.9944 5.31699 86.5838 5.90647 86.9865 6.6762C87.3991 7.44593 87.6053 8.38618 87.6053 9.49693C87.6053 10.5882 87.404 11.5187 87.0012 12.2884C86.6083 13.0484 86.0288 13.633 85.2626 14.0423C84.4964 14.4417 83.5583 14.6415 82.4484 14.6415H78.4996ZM80.6066 12.7123H82.4336C83.1605 12.7123 83.745 12.5759 84.187 12.303C84.629 12.0302 84.9532 11.6502 85.1595 11.1631C85.3657 10.6759 85.4689 10.1156 85.4689 9.48232C85.4689 8.86848 85.3657 8.31797 85.1595 7.8308C84.963 7.33388 84.6388 6.94414 84.187 6.66158C83.745 6.37902 83.1458 6.23774 82.3894 6.23774H80.6066V12.7123Z" fill="#171717"/>
<path d="M89.5424 14.6415V4.29392H94.11C94.5913 4.29392 95.0285 4.34264 95.4214 4.44008C95.8241 4.52777 96.1728 4.67392 96.4675 4.87853C96.7622 5.08314 96.9881 5.35596 97.1453 5.69698C97.3123 6.038 97.3958 6.47159 97.3958 6.99773C97.3958 7.42645 97.2975 7.82593 97.1011 8.19618C96.9046 8.56643 96.6148 8.84899 96.2318 9.04386C96.7425 9.2095 97.1453 9.49693 97.44 9.90616C97.7346 10.3056 97.882 10.8367 97.882 11.4992C97.882 12.0936 97.769 12.5954 97.5431 13.0046C97.3172 13.4041 97.0078 13.7256 96.6148 13.9692C96.2219 14.2128 95.7652 14.3881 95.2446 14.4953C94.724 14.5928 94.169 14.6415 93.5796 14.6415H89.5424ZM91.6494 12.7123H93.8301C94.0953 12.7123 94.3409 12.6928 94.5668 12.6538C94.8025 12.6148 95.0088 12.5515 95.1856 12.4638C95.3624 12.3664 95.5 12.2348 95.5982 12.0692C95.7062 11.9036 95.7603 11.699 95.7603 11.4554C95.7603 11.2313 95.7161 11.0461 95.6277 10.9C95.5491 10.7441 95.4312 10.6174 95.274 10.52C95.1267 10.4226 94.9499 10.3544 94.7436 10.3154C94.5471 10.2764 94.3261 10.2569 94.0806 10.2569H91.6494V12.7123ZM91.6494 8.51771H93.5796C93.8448 8.51771 94.0855 8.49335 94.3016 8.44464C94.5177 8.39592 94.6994 8.31797 94.8467 8.21079C94.9941 8.10362 95.107 7.97208 95.1856 7.81618C95.2642 7.65054 95.3035 7.46055 95.3035 7.24619C95.3133 6.95389 95.2495 6.73953 95.112 6.60312C94.9744 6.45697 94.7878 6.35954 94.5521 6.31082C94.3163 6.25236 94.0511 6.22313 93.7564 6.22313H91.6494V8.51771Z" fill="#171717"/>
<path d="M98.733 14.6415L102.8 4.29392H105.157L109.18 14.6415H106.91L106.262 12.873H101.65L101.002 14.6415H98.733ZM102.328 10.9877H105.599L103.978 6.51543L102.328 10.9877Z" fill="#171717"/>
<path d="M114.683 14.7584C113.612 14.7584 112.699 14.544 111.943 14.1153C111.196 13.6769 110.626 13.063 110.233 12.2738C109.85 11.4846 109.659 10.5638 109.659 9.51155C109.659 8.43976 109.855 7.50439 110.248 6.70543C110.651 5.90647 111.226 5.28776 111.972 4.8493C112.719 4.4011 113.617 4.177 114.668 4.177C115.464 4.177 116.176 4.31341 116.805 4.58623C117.434 4.8493 117.939 5.24391 118.322 5.77006C118.715 6.28646 118.961 6.92466 119.059 7.68465H117.026C116.898 7.20722 116.638 6.83209 116.245 6.55928C115.862 6.27672 115.351 6.13544 114.713 6.13544C114.005 6.13544 113.441 6.2962 113.018 6.61774C112.606 6.92953 112.306 7.33875 112.119 7.84541C111.933 8.34233 111.839 8.86848 111.839 9.42385C111.839 9.99872 111.938 10.5444 112.134 11.0608C112.331 11.5772 112.64 11.9961 113.062 12.3177C113.495 12.6392 114.059 12.8 114.757 12.8C115.169 12.8 115.538 12.7415 115.862 12.6246C116.186 12.4979 116.451 12.3177 116.658 12.0838C116.874 11.85 117.021 11.5723 117.1 11.2508H119.207C119.118 12.001 118.863 12.6392 118.44 13.1653C118.018 13.6915 117.483 14.091 116.834 14.3638C116.186 14.6269 115.469 14.7584 114.683 14.7584Z" fill="#171717"/>
<path d="M121.046 14.6415V4.29392H123.153V8.57617H127.662V4.29392H129.784V14.6415H127.662V10.5054H123.153V14.6415H121.046Z" fill="#171717"/>
<path d="M49.0681 29.0487C48.3702 29.0487 47.7876 28.9014 47.3202 28.6069C46.8592 28.3059 46.5134 27.8961 46.2829 27.3774C46.0588 26.8523 45.9468 26.2536 45.9468 25.5813C45.9468 24.9153 46.062 24.323 46.2925 23.8043C46.523 23.2793 46.8688 22.8662 47.3298 22.5653C47.7972 22.2579 48.383 22.1042 49.0873 22.1042C49.5868 22.1042 50.0157 22.1843 50.3743 22.3444C50.7393 22.4981 51.0338 22.7126 51.2579 22.9879C51.482 23.2633 51.6357 23.5866 51.7189 23.958H50.8737C50.7777 23.625 50.5696 23.3593 50.2495 23.1608C49.9357 22.9623 49.5387 22.863 49.0585 22.863C48.5207 22.863 48.0853 22.9911 47.7524 23.2472C47.4258 23.497 47.1857 23.8268 47.032 24.2366C46.8784 24.64 46.8015 25.0786 46.8015 25.5525C46.8015 26.0519 46.8816 26.5098 47.0417 26.926C47.2017 27.3422 47.4514 27.6752 47.7908 27.9249C48.1301 28.1682 48.5623 28.2899 49.0873 28.2899C49.4075 28.2899 49.6924 28.2451 49.9421 28.1554C50.1982 28.0658 50.4095 27.9377 50.576 27.7712C50.7489 27.6047 50.8673 27.4126 50.9313 27.1949H51.8437C51.7477 27.5663 51.5748 27.8929 51.3251 28.1746C51.0818 28.45 50.7713 28.6645 50.3935 28.8182C50.0157 28.9719 49.574 29.0487 49.0681 29.0487Z" fill="#171717"/>
<path d="M57.875 29.0487C57.1707 29.0487 56.5817 28.8982 56.1079 28.5973C55.634 28.2963 55.2755 27.8833 55.0322 27.3582C54.7953 26.8331 54.6768 26.2408 54.6768 25.5813C54.6768 24.9153 54.7953 24.3198 55.0322 23.7947C55.2755 23.2697 55.634 22.8566 56.1079 22.5557C56.5817 22.2547 57.1707 22.1042 57.875 22.1042C58.5793 22.1042 59.1652 22.2547 59.6326 22.5557C60.1064 22.8566 60.4617 23.2697 60.6986 23.7947C60.942 24.3198 61.0636 24.9153 61.0636 25.5813C61.0636 26.2408 60.942 26.8331 60.6986 27.3582C60.4617 27.8833 60.1064 28.2963 59.6326 28.5973C59.1652 28.8982 58.5793 29.0487 57.875 29.0487ZM57.875 28.2899C58.4129 28.2899 58.8546 28.1682 59.2004 27.9249C59.5461 27.6752 59.7991 27.3454 59.9591 26.9356C60.1256 26.5258 60.2088 26.0743 60.2088 25.5813C60.2088 25.2099 60.1608 24.8609 60.0648 24.5343C59.9751 24.2013 59.8343 23.91 59.6422 23.6603C59.4501 23.4105 59.2068 23.2152 58.9123 23.0744C58.6177 22.9335 58.272 22.863 57.875 22.863C57.3436 22.863 56.9018 22.9879 56.5496 23.2376C56.2039 23.4874 55.9446 23.8171 55.7717 24.227C55.6052 24.6368 55.522 25.0882 55.522 25.5813C55.522 26.0679 55.6052 26.5162 55.7717 26.926C55.9382 27.3358 56.1943 27.6656 56.54 27.9153C56.8922 28.165 57.3372 28.2899 57.875 28.2899Z" fill="#171717"/>
<path d="M64.2785 28.9719V22.1811H65.3446L68.8885 27.8385V22.1811H69.7241V28.9719H68.6772L65.1141 23.3337V28.9719H64.2785Z" fill="#171717"/>
<path d="M75.7672 29.0487C75.3382 29.0487 74.9316 28.9911 74.5474 28.8758C74.1697 28.7541 73.8463 28.5588 73.5774 28.2899C73.3085 28.0145 73.126 27.6496 73.03 27.1949H73.9039C73.9936 27.4831 74.1377 27.7072 74.3361 27.8673C74.541 28.0274 74.7747 28.1394 75.0372 28.2034C75.2998 28.2611 75.5623 28.2899 75.8248 28.2899C76.0873 28.2899 76.3306 28.2547 76.5547 28.1842C76.7852 28.1074 76.9709 27.9857 77.1117 27.8192C77.259 27.6528 77.3326 27.4382 77.3326 27.1757C77.3326 26.9708 77.2942 26.8043 77.2174 26.6762C77.147 26.5482 77.0445 26.4457 76.9101 26.3689C76.782 26.2856 76.6283 26.2184 76.4491 26.1672C76.2122 26.0903 75.9592 26.0263 75.6903 25.9751C75.4214 25.9239 75.1557 25.863 74.8932 25.7926C74.6371 25.7221 74.397 25.6325 74.1729 25.5236C74.0512 25.4596 73.9328 25.3828 73.8175 25.2931C73.7087 25.1971 73.6126 25.0882 73.5294 24.9666C73.4526 24.8385 73.3885 24.6944 73.3373 24.5343C73.2925 24.3742 73.2701 24.1981 73.2701 24.006C73.2701 23.7179 73.3149 23.4682 73.4045 23.2569C73.4942 23.0455 73.6158 22.8662 73.7695 22.719C73.9232 22.5717 74.1024 22.4532 74.3073 22.3636C74.5122 22.2739 74.7299 22.2099 74.9604 22.1715C75.1973 22.1267 75.4342 22.1042 75.6711 22.1042C76.0617 22.1042 76.4266 22.1651 76.766 22.2867C77.1117 22.402 77.3967 22.5909 77.6208 22.8534C77.8513 23.116 77.9761 23.4714 77.9953 23.9196H77.179C77.147 23.6507 77.0573 23.4393 76.9101 23.2857C76.7628 23.132 76.5803 23.0231 76.3626 22.9591C76.1449 22.8951 75.9144 22.863 75.6711 22.863C75.4918 22.863 75.3094 22.8791 75.1237 22.9111C74.9444 22.9431 74.7779 23.0007 74.6243 23.084C74.477 23.1608 74.3585 23.2697 74.2689 23.4105C74.1793 23.545 74.1344 23.7179 74.1344 23.9292C74.1344 24.0957 74.1633 24.243 74.2209 24.371C74.2849 24.4991 74.3682 24.608 74.4706 24.6976C74.5794 24.7809 74.6979 24.8513 74.826 24.9089C75.1333 25.037 75.4726 25.133 75.844 25.1971C76.2218 25.2547 76.5739 25.3411 76.9005 25.4564C77.0925 25.5204 77.2686 25.6005 77.4287 25.6965C77.5888 25.7926 77.7232 25.9046 77.8321 26.0327C77.9473 26.1608 78.0337 26.3081 78.0914 26.4745C78.1554 26.6346 78.1874 26.8171 78.1874 27.022C78.1874 27.3934 78.1234 27.7104 77.9953 27.9729C77.8673 28.2291 77.6912 28.4372 77.4671 28.5973C77.243 28.7573 76.9837 28.8726 76.6892 28.943C76.401 29.0135 76.0937 29.0487 75.7672 29.0487Z" fill="#171717"/>
<path d="M82.8894 28.9719V22.9399H80.7093V22.1811H85.9051V22.9399H83.725V28.9719H82.8894Z" fill="#171717"/>
<path d="M88.7992 28.9719V22.1811H91.3443C91.7221 22.1811 92.0582 22.2195 92.3528 22.2963C92.6537 22.3732 92.9098 22.4949 93.1211 22.6613C93.3324 22.8278 93.4925 23.0487 93.6013 23.3241C93.7165 23.593 93.7742 23.9196 93.7742 24.3038C93.7742 24.6816 93.7037 25.005 93.5629 25.2739C93.422 25.5364 93.2363 25.751 93.0058 25.9174C92.7753 26.0839 92.5256 26.2056 92.2567 26.2824L93.6781 28.9719H92.7657L91.4115 26.4265H89.6348V28.9719H88.7992ZM89.6348 25.6677H91.0754C91.3251 25.6677 91.5588 25.6485 91.7765 25.6101C92.0006 25.5717 92.1959 25.5044 92.3624 25.4084C92.5352 25.3059 92.6697 25.1651 92.7657 24.9858C92.8618 24.8001 92.913 24.5631 92.9194 24.275C92.9258 23.9484 92.865 23.6891 92.7369 23.497C92.6089 23.2985 92.42 23.1576 92.1703 23.0744C91.9206 22.9847 91.6164 22.9399 91.2579 22.9399H89.6348V25.6677Z" fill="#171717"/>
<path d="M99.6923 29.0487C99.0584 29.0487 98.543 28.9174 98.146 28.6549C97.7491 28.3923 97.4577 28.037 97.272 27.5887C97.0864 27.1341 96.9935 26.6186 96.9935 26.0423V22.1811H97.8291V26.0327C97.8291 26.4425 97.8867 26.8203 98.002 27.1661C98.1236 27.5055 98.3221 27.7776 98.5974 27.9825C98.8727 28.1874 99.2409 28.2899 99.7019 28.2899C100.169 28.2899 100.534 28.1874 100.797 27.9825C101.066 27.7776 101.258 27.5055 101.373 27.1661C101.488 26.8203 101.546 26.4425 101.546 26.0327V22.1811H102.391V26.0423C102.391 26.6122 102.298 27.1245 102.113 27.5791C101.927 28.0338 101.636 28.3923 101.239 28.6549C100.842 28.9174 100.326 29.0487 99.6923 29.0487Z" fill="#171717"/>
<path d="M108.678 29.0487C107.98 29.0487 107.397 28.9014 106.93 28.6069C106.469 28.3059 106.123 27.8961 105.893 27.3774C105.669 26.8523 105.556 26.2536 105.556 25.5813C105.556 24.9153 105.672 24.323 105.902 23.8043C106.133 23.2793 106.478 22.8662 106.939 22.5653C107.407 22.2579 107.993 22.1042 108.697 22.1042C109.196 22.1042 109.625 22.1843 109.984 22.3444C110.349 22.4981 110.643 22.7126 110.868 22.9879C111.092 23.2633 111.245 23.5866 111.329 23.958H110.483C110.387 23.625 110.179 23.3593 109.859 23.1608C109.545 22.9623 109.148 22.863 108.668 22.863C108.13 22.863 107.695 22.9911 107.362 23.2472C107.036 23.497 106.795 23.8268 106.642 24.2366C106.488 24.64 106.411 25.0786 106.411 25.5525C106.411 26.0519 106.491 26.5098 106.651 26.926C106.811 27.3422 107.061 27.6752 107.4 27.9249C107.74 28.1682 108.172 28.2899 108.697 28.2899C109.017 28.2899 109.302 28.2451 109.552 28.1554C109.808 28.0658 110.019 27.9377 110.186 27.7712C110.359 27.6047 110.477 27.4126 110.541 27.1949H111.453C111.357 27.5663 111.185 27.8929 110.935 28.1746C110.692 28.45 110.381 28.6645 110.003 28.8182C109.625 28.9719 109.184 29.0487 108.678 29.0487Z" fill="#171717"/>
<path d="M116.093 28.9719V22.9399H113.913V22.1811H119.109V22.9399H116.929V28.9719H116.093Z" fill="#171717"/>
<defs>
<linearGradient id="paint0_linear_1049_3008" x1="17.2119" y1="0" x2="17.2119" y2="35" gradientUnits="userSpaceOnUse">
<stop stop-color="#F36500"/>
<stop offset="1" stop-color="#F5BA4E"/>
</linearGradient>
</defs>
</svg>
