<svg xmlns="http://www.w3.org/2000/svg" xmlns:xlink="http://www.w3.org/1999/xlink" width="1024" zoomAndPan="magnify" viewBox="0 0 768 767.999994" height="1024" preserveAspectRatio="xMidYMid meet" version="1.0"><defs><clipPath id="6896809382"><path d="M 35.589844 50 L 715.089844 50 L 715.089844 691.34375 L 35.589844 691.34375 Z M 35.589844 50 " clip-rule="nonzero"/></clipPath></defs><g clip-path="url(#6896809382)"><path fill="#000000" d="M 174.257812 138.875 L 86.179688 227.597656 L 86.140625 347.539062 L 86.101562 467.484375 L 111.550781 441.179688 C 125.546875 426.714844 217.199219 334.792969 315.222656 236.910156 C 413.246094 139.027344 495.203125 56.964844 497.351562 54.546875 L 501.253906 50.148438 L 262.339844 50.148438 Z M 467.15625 114.5625 L 412.085938 169.65625 L 485.820312 243.636719 C 526.371094 284.324219 588.515625 346.949219 623.914062 382.800781 L 688.273438 447.988281 L 688.417969 340.378906 C 688.496094 281.195312 688.644531 231.375 688.75 229.667969 C 688.914062 226.9375 686.507812 224.070312 668.765625 205.871094 C 620.027344 155.871094 524.210938 59.460938 523.265625 59.464844 C 522.691406 59.46875 497.445312 84.261719 467.15625 114.5625 M 545.460938 401.523438 C 512.960938 434.460938 479.621094 468.339844 422.359375 526.625 C 346.128906 604.207031 333.277344 617.277344 312.949219 637.882812 C 300.863281 650.136719 290.972656 660.433594 290.972656 660.761719 C 290.972656 661.09375 341.042969 661.441406 402.246094 661.539062 L 513.519531 661.710938 L 576.792969 597.789062 C 611.597656 562.628906 650.921875 523.03125 664.179688 509.789062 C 685.199219 488.800781 688.292969 485.304688 688.292969 482.527344 C 688.292969 479.738281 683.710938 474.660156 651.21875 441.421875 C 633.003906 422.789062 614.792969 404.148438 596.597656 385.492188 L 579.046875 367.488281 Z M 164.734375 417.207031 C 147.429688 434.703125 124.0625 458.335938 112.800781 469.714844 L 92.332031 490.410156 L 262.339844 659.050781 L 314.480469 606.289062 L 366.625 553.527344 L 281.976562 469.460938 C 235.421875 423.226562 197.078125 385.394531 196.765625 385.394531 C 196.453125 385.390625 182.039062 399.707031 164.734375 417.207031 M 276.484375 876.347656 L 276.484375 995.863281 L 388.492188 995.601562 L 500.496094 995.335938 L 500.496094 757.359375 L 388.492188 757.097656 L 276.484375 756.832031 Z M 514.71875 876.089844 L 514.980469 995.335938 L 738.476562 995.335938 L 739 756.84375 L 514.457031 756.84375 Z M 858.199219 795.914062 L 825.828125 796.191406 L 802.613281 819.714844 L 779.394531 843.238281 L 779.371094 878.945312 L 779.34375 914.648438 L 802.890625 938.179688 L 826.441406 961.710938 L 897.832031 961.710938 L 921.347656 938.171875 L 944.855469 914.632812 L 944.925781 878.476562 L 944.996094 842.324219 L 921.664062 818.980469 C 899.542969 796.855469 898.128906 795.644531 894.453125 795.644531 C 892.320312 795.644531 876.007812 795.765625 858.199219 795.914062 M 804.945312 821.777344 L 782.449219 844.289062 L 782.460938 878.425781 L 782.476562 912.5625 L 805.390625 935.585938 L 828.308594 958.605469 L 896.800781 958.605469 L 919.296875 936.09375 L 941.792969 913.578125 L 941.792969 843.9375 L 897.988281 799.265625 L 827.441406 799.265625 Z M -138.65625 822.378906 L -159.0625 843.238281 L -159.089844 871.949219 C -159.105469 887.742188 -158.769531 900.589844 -158.339844 900.5 C -157.914062 900.40625 -135.453125 878.058594 -108.429688 850.832031 L -59.292969 801.332031 L -118.246094 801.519531 Z M 96.699219 822.296875 L 75.757812 843.257812 L 75.761719 872.738281 L 75.765625 902.214844 L 105.027344 872.726562 C 121.121094 856.507812 143.558594 833.808594 154.890625 822.285156 L 175.492188 801.332031 L 117.644531 801.332031 Z M 336.648438 822.519531 L 315.804688 843.707031 L 315.828125 872.445312 L 315.847656 901.179688 L 360.796875 856.171875 C 385.519531 831.417969 407.652344 808.949219 409.984375 806.25 L 414.222656 801.332031 L 357.488281 801.332031 Z M 574.710938 822.3125 L 553.75 843.289062 L 554.023438 871.980469 L 554.300781 900.671875 L 603.960938 851.003906 L 653.621094 801.332031 L 595.667969 801.332031 Z M -67.820312 816.09375 C -74.785156 823.074219 -80.480469 829.246094 -80.480469 829.808594 C -80.480469 830.375 -65.582031 845.726562 -47.371094 863.933594 L -14.261719 897.03125 L -14.261719 843.21875 L -34.1875 823.308594 C -45.148438 812.359375 -54.351562 803.402344 -54.640625 803.402344 C -54.925781 803.402344 -60.859375 809.113281 -67.820312 816.09375 M 166.84375 816.300781 C 159.765625 823.394531 154.355469 829.5625 154.8125 830.011719 C 155.273438 830.457031 170.101562 845.589844 187.765625 863.640625 C 205.425781 881.691406 220.246094 896.234375 220.695312 895.957031 C 221.144531 895.675781 221.558594 883.953125 221.613281 869.902344 L 221.710938 844.355469 L 201.253906 823.878906 C 190.003906 812.617188 180.554688 803.402344 180.253906 803.402344 C 179.953125 803.402344 173.921875 809.207031 166.84375 816.300781 M 406.824219 816.367188 L 393.941406 829.285156 L 460.660156 896.003906 L 460.652344 870.136719 L 460.644531 844.273438 L 449.9375 833.410156 C 444.050781 827.433594 434.839844 818.25 429.472656 812.996094 L 419.710938 803.453125 Z M 644.902344 816.269531 L 632.070312 829.132812 L 646.128906 843.945312 C 653.863281 852.09375 668.726562 867.140625 679.15625 877.382812 L 698.121094 896.007812 L 698.398438 869.652344 L 698.675781 843.292969 L 678.75 823.347656 C 667.789062 812.378906 658.578125 803.402344 658.28125 803.402344 C 657.984375 803.402344 651.960938 809.191406 644.902344 816.269531 M 816.84375 832.644531 L 797.96875 851.535156 L 797.96875 876.617188 C 797.96875 890.410156 798.085938 901.679688 798.226562 901.660156 C 798.859375 901.566406 885.917969 814.878906 885.917969 814.347656 C 885.917969 814.019531 874.621094 813.75 860.816406 813.75 L 835.714844 813.75 Z M 878.933594 827.457031 L 867.324219 839.101562 L 896.484375 868.332031 C 912.523438 884.40625 925.785156 897.558594 925.957031 897.558594 C 926.128906 897.558594 926.269531 887.195312 926.269531 874.527344 L 926.269531 851.496094 L 908.410156 833.652344 L 890.546875 815.8125 Z M 159.46875 911.984375 C 140.457031 931.390625 124.75 947.722656 124.558594 948.28125 C 124.339844 948.925781 134.132812 949.292969 151.492188 949.292969 L 178.773438 949.292969 L 200.304688 927.671875 C 218.839844 909.0625 221.6875 905.785156 220.777344 904.132812 C 220.191406 903.078125 213.9375 896.476562 206.875 889.457031 L 194.035156 876.703125 Z M -76.34375 913.078125 L -110.738281 948.257812 L -56.148438 948.257812 L -35.203125 927.296875 C -23.683594 915.769531 -14.261719 905.914062 -14.261719 905.398438 C -14.261719 904.320312 -40.1875 877.902344 -41.246094 877.902344 C -41.632812 877.902344 -57.425781 893.730469 -76.34375 913.078125 M 398.800781 912.820312 L 364.648438 947.742188 L 391.671875 948.019531 L 418.699219 948.292969 L 435.609375 931.464844 C 444.914062 922.207031 454.398438 912.417969 456.691406 909.714844 L 460.855469 904.800781 L 447.648438 891.351562 C 440.382812 883.953125 434.105469 877.902344 433.695312 877.902344 C 433.285156 877.902344 417.582031 893.617188 398.800781 912.820312 M 642.164062 907.128906 C 626.273438 923.207031 610.632812 939.152344 607.410156 942.570312 L 601.554688 948.777344 L 629.660156 948.464844 L 657.769531 948.15625 L 677.945312 927.367188 C 689.042969 915.929688 698.292969 906.121094 698.507812 905.570312 C 698.871094 904.617188 672.960938 877.902344 671.671875 877.902344 C 671.335938 877.902344 658.058594 891.054688 642.164062 907.128906 M 871.714844 911.785156 L 841.675781 942.570312 L 889.527344 943.125 L 907.867188 924.738281 C 917.949219 914.628906 926.21875 906.0625 926.238281 905.703125 C 926.285156 904.777344 903.46875 881.003906 902.53125 881.003906 C 902.105469 881.003906 888.238281 894.855469 871.714844 911.785156 M -145.867188 894.777344 L -157.96875 907.390625 L -117.59375 947.898438 L -104.761719 934.886719 L -91.933594 921.875 L -111.804688 901.957031 C -122.734375 891.003906 -132.148438 882.066406 -132.722656 882.101562 C -133.296875 882.140625 -139.210938 887.84375 -145.867188 894.777344 M 89.96875 894.210938 C 83.289062 900.90625 77.824219 906.714844 77.824219 907.121094 C 77.824219 907.527344 86.769531 916.960938 97.699219 928.085938 L 117.574219 948.316406 L 130.292969 935.628906 C 137.289062 928.648438 143.011719 922.453125 143.011719 921.855469 C 143.011719 920.5 104.453125 882.039062 103.097656 882.039062 C 102.554688 882.039062 96.644531 887.515625 89.96875 894.210938 M 329.808594 894.421875 L 317.457031 906.804688 L 336.027344 925.722656 C 346.238281 936.125 355.355469 945.03125 356.28125 945.515625 C 357.59375 946.195312 360.648438 943.710938 369.996094 934.351562 C 376.613281 927.730469 382.023438 921.976562 382.023438 921.566406 C 382.023438 920.734375 343.507812 882.039062 342.679688 882.039062 C 342.390625 882.039062 336.597656 887.609375 329.808594 894.421875 M 567.886719 894.320312 C 557.34375 904.890625 555.785156 906.875 556.710938 908.546875 C 557.304688 909.617188 566.199219 918.867188 576.476562 929.105469 L 595.164062 947.714844 L 608.105469 934.808594 L 621.042969 921.898438 L 601.132812 901.96875 C 590.183594 891.007812 580.976562 882.039062 580.679688 882.039062 C 580.378906 882.039062 574.621094 887.566406 567.886719 894.320312 M 810.519531 895.5625 L 799.792969 906.941406 L 810.003906 917.382812 C 815.621094 923.125 823.242188 931.03125 826.941406 934.945312 C 830.640625 938.863281 834.140625 942.066406 834.71875 942.058594 C 835.296875 942.054688 840.765625 937.039062 846.871094 930.914062 L 857.976562 919.777344 L 840.121094 901.941406 C 830.296875 892.132812 822.035156 884.125 821.757812 884.148438 C 821.476562 884.167969 816.421875 889.304688 810.519531 895.5625 M -193.003906 1012.140625 C -189.730469 1012.34375 -184.378906 1012.34375 -181.105469 1012.140625 C -177.832031 1011.933594 -180.511719 1011.765625 -187.054688 1011.765625 C -193.597656 1011.765625 -196.277344 1011.933594 -193.003906 1012.140625 M -145.339844 1012.152344 C -133.492188 1012.316406 -114.402344 1012.316406 -102.917969 1012.152344 C -91.429688 1011.984375 -101.125 1011.847656 -124.457031 1011.847656 C -147.789062 1011.847656 -157.183594 1011.984375 -145.339844 1012.152344 M -54.800781 1012.152344 C -40.960938 1012.3125 -18.613281 1012.3125 -5.136719 1012.152344 C 8.339844 1011.988281 -2.984375 1011.851562 -30.300781 1011.851562 C -57.613281 1011.855469 -68.640625 1011.988281 -54.800781 1012.152344 M 39.214844 1012.148438 C 50.132812 1012.316406 68.292969 1012.316406 79.570312 1012.152344 C 90.84375 1011.984375 81.914062 1011.847656 59.71875 1011.847656 C 37.523438 1011.84375 28.296875 1011.984375 39.214844 1012.148438 M 127.304688 1012.152344 C 142.28125 1012.3125 166.496094 1012.3125 181.109375 1012.152344 C 195.722656 1011.988281 183.46875 1011.855469 153.875 1011.855469 C 124.285156 1011.855469 112.328125 1011.988281 127.304688 1012.152344 M 225.066406 1012.148438 C 231.214844 1012.332031 240.992188 1012.332031 246.792969 1012.144531 C 252.597656 1011.960938 247.566406 1011.8125 235.617188 1011.8125 C 223.664062 1011.8125 218.917969 1011.964844 225.066406 1012.148438 M 310.902344 1012.117188 C 312.476562 1012.355469 314.804688 1012.347656 316.078125 1012.105469 C 317.351562 1011.859375 316.0625 1011.664062 313.21875 1011.671875 C 310.371094 1011.679688 309.332031 1011.878906 310.902344 1012.117188 M 332.636719 1012.09375 C 333.644531 1012.355469 335.042969 1012.335938 335.742188 1012.054688 C 336.441406 1011.769531 335.617188 1011.554688 333.910156 1011.578125 C 332.203125 1011.597656 331.632812 1011.828125 332.636719 1012.09375 M 359.519531 1012.117188 C 361.085938 1012.351562 363.644531 1012.351562 365.210938 1012.117188 C 366.777344 1011.878906 365.496094 1011.6875 362.367188 1011.6875 C 359.234375 1011.6875 357.953125 1011.878906 359.519531 1012.117188 M 369.414062 1012.082031 C 370.160156 1012.382812 371.054688 1012.34375 371.398438 1012 C 371.742188 1011.65625 371.128906 1011.414062 370.039062 1011.457031 C 368.835938 1011.507812 368.589844 1011.75 369.414062 1012.082031 M 374.589844 1012.082031 C 375.335938 1012.382812 376.226562 1012.34375 376.570312 1012 C 376.914062 1011.65625 376.304688 1011.414062 375.214844 1011.457031 C 374.007812 1011.507812 373.761719 1011.75 374.589844 1012.082031 M 380.75 1012.125 C 382.609375 1012.355469 385.402344 1012.351562 386.957031 1012.113281 C 388.511719 1011.878906 386.992188 1011.691406 383.578125 1011.695312 C 380.164062 1011.703125 378.890625 1011.894531 380.75 1012.125 M 392.179688 1012.082031 C 392.925781 1012.382812 393.816406 1012.34375 394.160156 1012 C 394.503906 1011.65625 393.894531 1011.414062 392.804688 1011.457031 C 391.597656 1011.507812 391.351562 1011.75 392.179688 1012.082031 M 420.097656 1012.144531 C 424.820312 1012.335938 432.269531 1012.335938 436.652344 1012.144531 C 441.035156 1011.949219 437.171875 1011.792969 428.066406 1011.792969 C 418.964844 1011.796875 415.375 1011.953125 420.097656 1012.144531 M 496.148438 1012.144531 C 500.582031 1012.339844 507.566406 1012.339844 511.667969 1012.144531 C 515.765625 1011.945312 512.136719 1011.789062 503.601562 1011.789062 C 495.0625 1011.789062 491.710938 1011.949219 496.148438 1012.144531 M 539.554688 1012.148438 C 550.226562 1012.316406 567.6875 1012.316406 578.355469 1012.148438 C 589.027344 1011.980469 580.296875 1011.84375 558.957031 1011.84375 C 537.617188 1011.84375 528.886719 1011.980469 539.554688 1012.148438 M 614.054688 1012.117188 C 615.617188 1012.351562 618.179688 1012.351562 619.746094 1012.117188 C 621.308594 1011.878906 620.027344 1011.6875 616.898438 1011.6875 C 613.769531 1011.6875 612.488281 1011.878906 614.054688 1012.117188 M 629.054688 1012.058594 C 629.769531 1012.347656 630.933594 1012.347656 631.644531 1012.058594 C 632.355469 1011.773438 631.773438 1011.539062 630.351562 1011.539062 C 628.925781 1011.539062 628.347656 1011.773438 629.054688 1012.058594 M 655.503906 1012.148438 C 664.503906 1012.320312 678.9375 1012.320312 687.582031 1012.148438 C 696.222656 1011.976562 688.863281 1011.835938 671.21875 1011.835938 C 653.578125 1011.835938 646.507812 1011.976562 655.503906 1012.148438 M 718.105469 1012.082031 C 718.851562 1012.382812 719.742188 1012.34375 720.085938 1012 C 720.429688 1011.65625 719.820312 1011.414062 718.730469 1011.457031 C 717.523438 1011.507812 717.28125 1011.75 718.105469 1012.082031 M 761.054688 1012.152344 C 782.582031 1012.308594 817.5 1012.308594 838.65625 1012.152344 C 859.8125 1011.992188 842.203125 1011.867188 799.523438 1011.867188 C 756.839844 1011.867188 739.53125 1011.996094 761.054688 1012.152344 M 912.042969 1012.148438 C 923.28125 1012.316406 941.675781 1012.316406 952.914062 1012.148438 C 964.152344 1011.984375 954.957031 1011.847656 932.480469 1011.847656 C 910 1011.847656 900.804688 1011.984375 912.042969 1012.148438 M 559.992188 1122.542969 C 559.992188 1176.734375 560.34375 1204.863281 561.027344 1204.863281 C 561.707031 1204.863281 562.058594 1176.945312 562.058594 1123.183594 C 562.058594 1069.84375 561.703125 1041.28125 561.027344 1040.863281 C 560.339844 1040.441406 559.992188 1067.925781 559.992188 1122.542969 M 690.363281 1052.222656 C 690.363281 1057.191406 690.695312 1058.105469 693.066406 1059.660156 C 695.492188 1061.25 696.058594 1061.277344 698.5 1059.910156 C 700.886719 1058.574219 701.265625 1057.632812 701.539062 1052.367188 C 701.777344 1047.78125 701.53125 1046.453125 700.503906 1046.789062 C 699.746094 1047.039062 698.929688 1049.453125 698.640625 1052.316406 C 698.242188 1056.234375 697.675781 1057.484375 696.175781 1057.769531 C 693.570312 1058.265625 692.464844 1056.246094 692.445312 1050.953125 C 692.4375 1048.53125 691.964844 1046.554688 691.398438 1046.554688 C 690.828125 1046.554688 690.363281 1049.105469 690.363281 1052.222656 M 706.089844 1047.796875 C 703.464844 1050.417969 705.136719 1054.152344 709.300781 1054.980469 C 712.277344 1055.570312 711.304688 1057.417969 708.019531 1057.417969 C 703.769531 1057.417969 703.011719 1058.71875 706.484375 1060.039062 C 713.554688 1062.726562 717.121094 1055.933594 710.304688 1052.761719 C 706.183594 1050.847656 706.515625 1049.03125 710.898438 1049.464844 C 714.289062 1049.804688 715.375 1048.277344 712.523438 1047.183594 C 709.964844 1046.199219 707.445312 1046.441406 706.089844 1047.796875 M 720.464844 1048.882812 C 719.976562 1050.164062 718.820312 1053.027344 717.890625 1055.25 C 715.953125 1059.878906 716.410156 1061.097656 719.148438 1058.621094 C 721.570312 1056.429688 725.164062 1056.414062 726.382812 1058.585938 C 726.902344 1059.515625 727.855469 1060.097656 728.5 1059.878906 C 729.933594 1059.402344 724.105469 1046.554688 722.457031 1046.554688 C 721.847656 1046.554688 720.953125 1047.601562 720.464844 1048.882812 M 733.253906 1049.09375 C 729.382812 1052.96875 730.40625 1058.117188 735.433594 1060.03125 C 739.523438 1061.585938 743.132812 1059.648438 743.132812 1055.894531 C 743.132812 1053.242188 742.734375 1052.761719 740.542969 1052.761719 C 739.121094 1052.761719 737.957031 1053.226562 737.957031 1053.796875 C 737.957031 1054.367188 738.65625 1054.832031 739.507812 1054.832031 C 740.363281 1054.832031 741.0625 1055.53125 741.0625 1056.382812 C 741.0625 1058.261719 736.84375 1058.480469 735.058594 1056.695312 C 733.222656 1054.855469 733.554688 1050.90625 735.640625 1049.792969 C 736.640625 1049.253906 738.855469 1049.035156 740.554688 1049.304688 C 743.503906 1049.773438 743.554688 1049.71875 741.640625 1048.175781 C 738.792969 1045.878906 736.1875 1046.164062 733.253906 1049.09375 M 746.234375 1053.28125 L 746.234375 1060.003906 L 751.410156 1060.003906 C 754.253906 1060.003906 756.582031 1059.539062 756.582031 1058.972656 C 756.582031 1058.402344 754.953125 1057.9375 752.960938 1057.9375 C 750.433594 1057.9375 749.339844 1057.46875 749.339844 1056.382812 C 749.339844 1055.351562 750.375 1054.832031 752.441406 1054.832031 C 754.152344 1054.832031 755.546875 1054.367188 755.546875 1053.796875 C 755.546875 1053.226562 754.152344 1052.761719 752.441406 1052.761719 C 748.121094 1052.761719 748.277344 1049.894531 752.621094 1049.464844 C 758.339844 1048.902344 757.429688 1046.554688 751.496094 1046.554688 L 746.234375 1046.554688 Z M 765.894531 1053.28125 L 765.894531 1060.003906 L 770.550781 1060.003906 C 773.109375 1060.003906 775.207031 1059.539062 775.207031 1058.972656 C 775.207031 1058.402344 773.578125 1057.9375 771.585938 1057.9375 C 769.054688 1057.9375 767.964844 1057.46875 767.964844 1056.382812 C 767.964844 1055.351562 769 1054.832031 771.066406 1054.832031 C 772.773438 1054.832031 774.171875 1054.367188 774.171875 1053.796875 C 774.171875 1053.226562 772.773438 1052.761719 771.066406 1052.761719 C 766.746094 1052.761719 766.902344 1049.894531 771.246094 1049.464844 C 776.648438 1048.933594 776.152344 1046.554688 770.636719 1046.554688 L 765.894531 1046.554688 Z M 778.308594 1047.109375 C 778.308594 1047.414062 779.074219 1048.828125 780.007812 1050.253906 C 781.480469 1052.503906 781.519531 1053.222656 780.300781 1055.652344 C 779.703125 1056.839844 779.105469 1058.035156 778.515625 1059.230469 C 777.597656 1061.117188 781.058594 1059.777344 782.320312 1057.757812 L 783.722656 1055.511719 L 785.523438 1057.894531 C 786.511719 1059.207031 787.886719 1060.089844 788.582031 1059.859375 C 789.449219 1059.570312 789.152344 1058.5625 787.632812 1056.628906 C 785.488281 1053.90625 785.476562 1053.730469 787.242188 1050.738281 C 789.535156 1046.859375 788.15625 1045.179688 785.519531 1048.640625 L 783.5625 1051.210938 L 781.914062 1048.882812 C 780.414062 1046.769531 778.308594 1045.734375 778.308594 1047.109375 M 794.136719 1053.28125 C 792.019531 1057.738281 791.390625 1060.003906 792.261719 1060.003906 C 792.984375 1060.003906 794.15625 1059.308594 794.867188 1058.453125 C 796.574219 1056.394531 800.730469 1056.472656 801.914062 1058.585938 C 802.433594 1059.515625 803.347656 1060.097656 803.941406 1059.878906 C 805.179688 1059.433594 799.65625 1046.554688 798.226562 1046.554688 C 797.730469 1046.554688 795.890625 1049.582031 794.136719 1053.28125 M 807.28125 1053.28125 C 807.28125 1058.570312 807.613281 1060.003906 808.832031 1060.003906 C 809.933594 1060.003906 810.390625 1058.875 810.410156 1056.125 L 810.429688 1052.246094 L 812.351562 1054.742188 L 814.269531 1057.238281 L 815.46875 1055 C 817.277344 1051.625 818.5625 1052.3125 818.058594 1056.382812 C 817.71875 1059.121094 817.988281 1060.003906 819.171875 1060.003906 C 820.402344 1060.003906 820.730469 1058.585938 820.730469 1053.28125 C 820.730469 1047.992188 820.398438 1046.554688 819.179688 1046.554688 C 818.328125 1046.554688 817.617188 1046.90625 817.605469 1047.332031 C 817.59375 1047.757812 816.714844 1049.234375 815.65625 1050.613281 L 813.726562 1053.121094 L 812.03125 1049.835938 C 809.128906 1044.222656 807.28125 1045.5625 807.28125 1053.28125 M 824.527344 1047.246094 C 824.148438 1047.625 823.835938 1050.648438 823.835938 1053.96875 C 823.835938 1058.644531 824.1875 1060.003906 825.386719 1060.003906 C 826.242188 1060.003906 826.941406 1059.105469 826.941406 1058.003906 C 826.941406 1056.617188 827.773438 1055.902344 829.667969 1055.675781 C 831.167969 1055.496094 833.066406 1054.335938 833.882812 1053.097656 C 835.21875 1051.074219 835.152344 1050.628906 833.222656 1048.699219 C 831.175781 1046.652344 825.988281 1045.785156 824.527344 1047.246094 M 837.289062 1053.28125 L 837.289062 1060.003906 L 841.945312 1060.003906 C 844.503906 1060.003906 846.601562 1059.539062 846.601562 1058.972656 C 846.601562 1058.402344 844.96875 1057.9375 842.976562 1057.9375 L 839.355469 1057.9375 L 839.355469 1052.246094 C 839.355469 1049.117188 838.890625 1046.554688 838.324219 1046.554688 C 837.738281 1046.554688 837.289062 1049.484375 837.289062 1053.28125 M 848.667969 1053.28125 L 848.667969 1060.003906 L 853.84375 1060.003906 C 856.6875 1060.003906 859.015625 1059.539062 859.015625 1058.972656 C 859.015625 1058.402344 857.386719 1057.9375 855.394531 1057.9375 C 852.867188 1057.9375 851.773438 1057.46875 851.773438 1056.382812 C 851.773438 1055.351562 852.808594 1054.832031 854.878906 1054.832031 C 856.585938 1054.832031 857.980469 1054.367188 857.980469 1053.796875 C 857.980469 1053.226562 856.585938 1052.761719 854.878906 1052.761719 C 850.554688 1052.761719 850.710938 1049.894531 855.054688 1049.464844 C 860.773438 1048.902344 859.867188 1046.554688 853.929688 1046.554688 L 848.667969 1046.554688 Z M 862.710938 1048.179688 C 860.082031 1050.8125 861.03125 1053.042969 865.503906 1054.742188 C 869.699219 1056.335938 869.125 1058.316406 864.707031 1057.488281 C 860.375 1056.675781 859.734375 1058.507812 863.8125 1060.058594 C 865.894531 1060.851562 867.128906 1060.707031 869.046875 1059.449219 C 872.335938 1057.296875 871.738281 1054.679688 867.53125 1052.824219 C 863.597656 1051.09375 863.675781 1049.007812 867.660156 1049.441406 C 870.640625 1049.761719 871.402344 1048.195312 868.761719 1047.183594 C 866.121094 1046.171875 864.445312 1046.445312 862.710938 1048.179688 M 826.941406 1051.726562 C 826.941406 1053.429688 827.476562 1053.863281 829.269531 1053.613281 C 830.546875 1053.429688 831.597656 1052.582031 831.597656 1051.726562 C 831.597656 1050.875 830.546875 1050.027344 829.269531 1049.84375 C 827.476562 1049.589844 826.941406 1050.023438 826.941406 1051.726562 M 722.109375 1051.367188 C 720.835938 1052.640625 721.371094 1054.832031 722.953125 1054.832031 C 724.679688 1054.832031 724.894531 1053.941406 723.644531 1051.972656 C 723.1875 1051.25 722.496094 1050.980469 722.109375 1051.367188 M 796.933594 1053.28125 C 796.933594 1054.132812 797.617188 1054.832031 798.453125 1054.832031 C 799.378906 1054.832031 799.742188 1054.226562 799.378906 1053.28125 C 799.050781 1052.425781 798.367188 1051.726562 797.859375 1051.726562 C 797.351562 1051.726562 796.933594 1052.425781 796.933594 1053.28125 M -142.46875 1058.03125 C -147.433594 1060.015625 -147.667969 1061.1875 -147.703125 1084.125 C -147.726562 1097.902344 -148.101562 1105.429688 -148.75 1105.027344 C -149.308594 1104.683594 -150.703125 1104.90625 -151.851562 1105.519531 C -153.800781 1106.5625 -153.945312 1107.648438 -153.945312 1121.382812 L -153.945312 1136.125 L -150.839844 1137.960938 C -148.214844 1139.511719 -147.734375 1140.433594 -147.734375 1143.921875 C -147.734375 1146.921875 -147.042969 1148.742188 -145.195312 1150.585938 L -142.65625 1153.128906 L -81.421875 1153.128906 L -78.882812 1150.585938 L -76.34375 1148.046875 L -76.34375 1084.292969 L -103.789062 1056.902344 L -121.882812 1056.96875 C -131.835938 1057.003906 -141.097656 1057.480469 -142.46875 1058.03125 M -10.027344 1058.03125 C -14.992188 1060.015625 -15.226562 1061.1875 -15.261719 1084.125 C -15.28125 1095.964844 -15.644531 1105.449219 -16.070312 1105.195312 C -16.5 1104.945312 -17.894531 1105.136719 -19.175781 1105.621094 C -21.441406 1106.476562 -21.503906 1106.902344 -21.503906 1121.3125 L -21.503906 1136.125 L -18.398438 1137.960938 C -15.777344 1139.511719 -15.296875 1140.433594 -15.296875 1143.921875 C -15.296875 1146.921875 -14.605469 1148.742188 -12.753906 1150.585938 L -10.214844 1153.128906 L 51.019531 1153.128906 L 53.558594 1150.585938 L 56.097656 1148.046875 L 56.097656 1084.292969 L 42.375 1070.597656 L 28.648438 1056.902344 L 10.558594 1056.96875 C 0.605469 1057.003906 -8.65625 1057.480469 -10.027344 1058.03125 M 121.695312 1058.425781 C 119.929688 1059.167969 118.1875 1060.5625 117.816406 1061.527344 C 117.449219 1062.492188 117.144531 1072.507812 117.144531 1083.785156 L 117.144531 1104.292969 L 114.039062 1105.375 L 110.9375 1106.460938 L 110.9375 1136.125 L 114.039062 1137.960938 C 116.664062 1139.511719 117.144531 1140.433594 117.144531 1143.921875 C 117.144531 1146.921875 117.835938 1148.742188 119.683594 1150.585938 L 122.222656 1153.128906 L 152.679688 1153.128906 C 181.117188 1153.128906 183.296875 1152.996094 185.578125 1151.152344 L 188.019531 1149.175781 L 188.335938 1116.816406 L 188.652344 1084.460938 L 174.882812 1070.652344 L 161.117188 1056.84375 L 143.011719 1056.957031 C 130.675781 1057.035156 123.882812 1057.503906 121.695312 1058.425781 M 257.753906 1058.054688 C 253.242188 1059.710938 252.6875 1062.636719 252.6875 1084.816406 L 252.6875 1105.394531 L 249.84375 1105.722656 L 246.996094 1106.050781 L 246.714844 1121.070312 L 246.425781 1136.09375 L 249.558594 1137.945312 C 252.210938 1139.511719 252.6875 1140.425781 252.6875 1143.921875 C 252.6875 1146.921875 253.378906 1148.742188 255.230469 1150.585938 L 257.769531 1153.128906 L 288.078125 1153.09375 C 311.308594 1153.070312 318.804688 1152.746094 320.160156 1151.71875 C 323.832031 1148.929688 324.230469 1145.054688 324.011719 1114.328125 L 323.796875 1084.320312 L 310.28125 1070.609375 L 296.761719 1056.902344 L 278.605469 1056.984375 C 268.617188 1057.027344 259.234375 1057.507812 257.753906 1058.054688 M 394.269531 1058.085938 C 392.753906 1058.632812 391.132812 1059.871094 390.664062 1060.839844 C 390.195312 1061.804688 389.457031 1072.371094 389.027344 1084.320312 C 388.597656 1096.269531 387.984375 1112.3125 387.660156 1119.972656 C 387.3125 1128.320312 387.488281 1134.742188 388.101562 1136.011719 C 388.664062 1137.171875 389.328125 1140.65625 389.578125 1143.75 C 390.355469 1153.339844 389.554688 1153.128906 425.125 1153.128906 L 455.582031 1153.128906 L 458.121094 1150.585938 L 460.660156 1148.046875 L 460.660156 1084.292969 L 446.953125 1070.644531 L 433.242188 1056.996094 L 415.132812 1057.039062 C 405.175781 1057.0625 395.785156 1057.535156 394.269531 1058.085938 M -136.65625 1059.734375 C -143.101562 1060.070312 -143.769531 1060.324219 -144.699219 1062.765625 C -145.269531 1064.265625 -145.589844 1074.058594 -145.429688 1085.222656 L -145.148438 1105.015625 L -119.882812 1105.292969 C -103.363281 1105.472656 -94.140625 1105.964844 -93.238281 1106.710938 C -91.390625 1108.246094 -91.269531 1133.496094 -93.105469 1135.332031 C -94.003906 1136.230469 -101.425781 1136.574219 -120.007812 1136.574219 L -145.667969 1136.574219 L -145.667969 1141.746094 C -145.667969 1145.539062 -145.117188 1147.472656 -143.597656 1148.988281 C -141.625 1150.960938 -140.148438 1151.058594 -112.039062 1151.058594 C -83.929688 1151.058594 -82.453125 1150.960938 -80.480469 1148.988281 C -78.503906 1147.011719 -78.410156 1145.539062 -78.410156 1115.878906 L -78.410156 1084.839844 L -89.277344 1084.839844 C -103.890625 1084.839844 -104.277344 1084.460938 -104.277344 1070.351562 L -104.277344 1060.003906 L -108.675781 1059.921875 C -111.097656 1059.875 -116.800781 1059.730469 -121.351562 1059.601562 C -125.902344 1059.472656 -132.792969 1059.53125 -136.65625 1059.734375 M -8.054688 1059.734375 C -12.910156 1060.519531 -13.226562 1062.027344 -13.226562 1084.519531 L -13.226562 1105.53125 L 12.433594 1105.53125 C 31.011719 1105.53125 38.4375 1105.875 39.335938 1106.773438 C 40.167969 1107.609375 40.578125 1112.292969 40.578125 1121.050781 C 40.578125 1129.8125 40.167969 1134.496094 39.335938 1135.332031 C 38.4375 1136.230469 31.011719 1136.574219 12.433594 1136.574219 L -13.226562 1136.574219 L -13.226562 1142.203125 C -13.226562 1151.210938 -13.804688 1151.058594 20.632812 1151.058594 C 48.582031 1151.058594 49.984375 1150.964844 51.972656 1148.972656 C 53.984375 1146.964844 54.050781 1145.777344 53.785156 1116.121094 L 53.511719 1085.355469 L 42.648438 1085.082031 C 28.46875 1084.730469 28.160156 1084.414062 28.160156 1070.238281 L 28.160156 1060.003906 L 16.003906 1059.914062 C 9.316406 1059.863281 1.75 1059.707031 -0.808594 1059.570312 C -3.371094 1059.429688 -6.628906 1059.503906 -8.054688 1059.734375 M 123.25 1059.8125 C 119.589844 1060.898438 119.214844 1063.199219 119.214844 1084.519531 L 119.214844 1105.53125 L 144.875 1105.53125 C 163.453125 1105.53125 170.875 1105.875 171.777344 1106.773438 C 173.496094 1108.496094 173.496094 1133.609375 171.777344 1135.332031 C 170.875 1136.230469 163.453125 1136.574219 144.875 1136.574219 L 119.214844 1136.574219 L 119.214844 1141.746094 C 119.214844 1145.539062 119.765625 1147.472656 121.28125 1148.988281 C 123.253906 1150.960938 124.730469 1151.058594 152.644531 1151.058594 C 176.304688 1151.058594 182.320312 1150.777344 183.941406 1149.589844 C 185.855469 1148.191406 185.949219 1146.609375 185.949219 1116.738281 L 185.949219 1085.355469 L 175.085938 1085.082031 C 160.910156 1084.730469 160.601562 1084.414062 160.601562 1070.238281 L 160.601562 1060.003906 L 154.652344 1059.929688 C 151.378906 1059.890625 143.300781 1059.75 136.699219 1059.621094 C 130.097656 1059.492188 124.046875 1059.578125 123.25 1059.8125 M 260.136719 1060.066406 C 258.257812 1060.472656 256.398438 1061.128906 256 1061.527344 C 255.601562 1061.925781 255.304688 1071.875 255.339844 1083.636719 L 255.402344 1105.015625 L 281.207031 1105.53125 L 307.007812 1106.050781 L 307.296875 1120.457031 C 307.515625 1131.285156 307.257812 1135.070312 306.261719 1135.703125 C 305.535156 1136.164062 293.589844 1136.546875 279.71875 1136.558594 L 254.5 1136.574219 L 254.988281 1142.417969 C 255.324219 1146.507812 256.046875 1148.683594 257.382812 1149.660156 C 258.878906 1150.757812 265.613281 1151.058594 288.507812 1151.058594 C 313.691406 1151.058594 317.949219 1150.832031 319.351562 1149.433594 C 320.757812 1148.027344 320.976562 1143.566406 320.976562 1116.324219 L 320.976562 1084.839844 L 310.273438 1084.839844 C 296.289062 1084.839844 296.144531 1084.695312 296.144531 1070.664062 L 296.144531 1060.273438 L 287.046875 1059.5625 C 276.785156 1058.757812 265.226562 1058.976562 260.136719 1060.066406 M 398.0625 1059.839844 C 396.355469 1060.03125 394.375 1060.671875 393.664062 1061.257812 C 392.277344 1062.40625 391.859375 1066.292969 393.148438 1066.09375 C 395.59375 1065.703125 396.617188 1066.535156 394.441406 1067.140625 L 391.855469 1067.863281 L 391.9375 1083.589844 C 391.984375 1092.242188 392.292969 1099.59375 392.628906 1099.925781 C 392.960938 1100.257812 394.164062 1099.601562 395.300781 1098.460938 C 396.441406 1097.324219 397.101562 1096.121094 396.769531 1095.789062 C 396.4375 1095.457031 396.707031 1095.183594 397.371094 1095.183594 C 398.035156 1095.183594 398.578125 1096.582031 398.578125 1098.289062 C 398.578125 1101.023438 398.222656 1101.394531 395.585938 1101.394531 C 392.851562 1101.394531 390.390625 1103.859375 392.160156 1104.832031 C 392.558594 1105.054688 404.460938 1105.117188 418.605469 1104.972656 C 449.789062 1104.65625 448.363281 1104.070312 447.488281 1116.824219 C 447.113281 1122.277344 447.289062 1125.191406 447.988281 1125.191406 C 449.21875 1125.191406 447.574219 1133.132812 445.898438 1135.28125 C 445.203125 1136.167969 441.511719 1136.574219 434.148438 1136.574219 L 423.410156 1136.574219 L 423.410156 1139.675781 C 423.410156 1142.519531 423.128906 1142.769531 420.050781 1142.640625 C 417.617188 1142.539062 417.332031 1142.375 419.015625 1142.050781 C 420.292969 1141.804688 421.34375 1141.207031 421.34375 1140.722656 C 421.34375 1140.242188 421.625 1139.109375 421.972656 1138.210938 C 422.519531 1136.773438 421.113281 1136.574219 410.589844 1136.574219 L 398.578125 1136.574219 L 398.578125 1139.613281 C 398.578125 1142.285156 398.175781 1142.6875 395.21875 1142.972656 C 392.320312 1143.253906 391.894531 1143.652344 392.144531 1145.863281 C 392.300781 1147.273438 392.90625 1148.902344 393.488281 1149.484375 C 394.804688 1150.800781 453.140625 1151.113281 455.746094 1149.816406 C 457.410156 1148.988281 457.558594 1146.359375 457.558594 1116.878906 L 457.558594 1084.839844 L 446.851562 1084.839844 C 432.847656 1084.839844 432.722656 1084.714844 432.722656 1070.53125 L 432.722656 1060.003906 L 428.328125 1059.832031 C 419.738281 1059.488281 401.121094 1059.492188 398.0625 1059.839844 M 425.480469 1064.035156 C 425.480469 1066.851562 425.832031 1067.25 428.328125 1067.25 C 430.671875 1067.25 431.171875 1066.792969 431.171875 1064.660156 C 431.171875 1063.238281 430.628906 1062.074219 429.964844 1062.074219 C 429.296875 1062.074219 428.019531 1061.792969 427.117188 1061.445312 C 425.84375 1060.957031 425.480469 1061.527344 425.480469 1064.035156 M 434.792969 1070.988281 C 434.792969 1081.789062 435.726562 1082.769531 446 1082.769531 C 450.078125 1082.769531 453.417969 1082.410156 453.417969 1081.972656 C 453.417969 1081.53125 449.226562 1077.003906 444.105469 1071.90625 L 434.792969 1062.636719 Z M -101.175781 1071.980469 C -101.175781 1077.0625 -100.691406 1080.769531 -99.933594 1081.527344 C -98.566406 1082.894531 -83.585938 1083.300781 -83.585938 1081.96875 C -83.585938 1081.53125 -87.542969 1077.234375 -92.378906 1072.421875 L -101.175781 1063.671875 Z M 30.707031 1067.613281 C 29.804688 1072.425781 30.941406 1080.175781 32.769531 1081.695312 C 33.617188 1082.398438 37.289062 1082.738281 42.058594 1082.554688 L 49.945312 1082.25 L 40.683594 1073.039062 L 31.417969 1063.824219 Z M 162.671875 1071.71875 C 162.671875 1081.722656 163.742188 1082.769531 173.96875 1082.769531 L 181.480469 1082.769531 L 174.613281 1075.097656 C 170.835938 1070.875 166.601562 1066.675781 165.207031 1065.761719 L 162.671875 1064.097656 Z M 298.214844 1071.15625 C 298.214844 1081.46875 299.441406 1082.769531 309.136719 1082.769531 C 313.375 1082.769531 316.839844 1082.621094 316.839844 1082.4375 C 316.839844 1081.738281 299.625 1064.144531 298.941406 1064.144531 C 298.539062 1064.144531 298.214844 1067.300781 298.214844 1071.15625 M 399.71875 1072.679688 C 399.621094 1076.277344 399.820312 1076.550781 402.460938 1076.441406 C 404.023438 1076.375 404.550781 1076.121094 403.628906 1075.875 C 402.707031 1075.628906 401.476562 1073.9375 400.890625 1072.113281 L 399.824219 1068.800781 Z M 417.980469 1076.210938 C 418.691406 1076.5 419.855469 1076.5 420.566406 1076.210938 C 421.277344 1075.925781 420.695312 1075.691406 419.273438 1075.691406 C 417.851562 1075.691406 417.269531 1075.925781 417.980469 1076.210938 M 662.285156 1076.230469 C 657.144531 1077.070312 648.664062 1083.070312 645.609375 1088.027344 C 641.125 1095.296875 640.519531 1102.382812 640.886719 1143.492188 C 641.195312 1178.535156 641.332031 1180.800781 643.378906 1185.203125 C 646.453125 1191.816406 650.070312 1195.722656 655.851562 1198.675781 L 660.875 1201.242188 L 702.542969 1201.535156 C 729.566406 1201.722656 745.644531 1201.441406 748.285156 1200.730469 C 754.320312 1199.105469 760.828125 1193.632812 764.34375 1187.234375 L 767.445312 1181.582031 L 767.761719 1141.429688 C 768.105469 1097.285156 767.800781 1094.382812 761.960938 1086.324219 C 760.339844 1084.085938 756.484375 1080.855469 753.398438 1079.148438 L 747.789062 1076.042969 L 706.398438 1075.914062 C 683.636719 1075.839844 663.785156 1075.984375 662.285156 1076.230469 M 407.925781 1080.957031 C 407.894531 1084.707031 408.011719 1084.839844 411.511719 1084.839844 C 414.960938 1084.839844 415.132812 1084.664062 415.132812 1081.21875 C 415.132812 1078.453125 414.707031 1077.601562 413.324219 1077.609375 C 411.875 1077.625 411.800781 1077.808594 412.957031 1078.542969 C 414.113281 1079.273438 414.007812 1079.535156 412.4375 1079.855469 C 411.359375 1080.078125 409.910156 1079.542969 409.21875 1078.667969 C 408.167969 1077.34375 407.953125 1077.726562 407.925781 1080.957031 M 405.824219 1088.910156 C 405.824219 1091.5625 405.394531 1092.003906 402.460938 1092.367188 C 399.148438 1092.777344 399.15625 1092.785156 402.976562 1092.949219 C 406.753906 1093.113281 406.855469 1093.019531 406.855469 1089.496094 C 406.855469 1087.503906 406.625 1085.871094 406.339844 1085.871094 C 406.054688 1085.871094 405.824219 1087.238281 405.824219 1088.910156 M 442.875 1090.527344 C 442.46875 1094 442.589844 1094.152344 445.753906 1094.152344 C 448.753906 1094.152344 449.089844 1093.824219 449.476562 1090.527344 C 449.707031 1088.539062 449.527344 1086.90625 449.070312 1086.90625 C 448.617188 1086.90625 448.230469 1087.957031 448.210938 1089.234375 L 448.175781 1091.5625 L 446.234375 1089.234375 C 443.664062 1086.15625 443.371094 1086.269531 442.875 1090.527344 M 424.445312 1096.738281 C 424.445312 1098.160156 424.796875 1099.332031 425.222656 1099.339844 C 425.648438 1099.34375 427.046875 1099.632812 428.328125 1099.976562 C 430.375 1100.523438 430.65625 1100.214844 430.65625 1097.375 C 430.65625 1094.480469 430.335938 1094.152344 427.550781 1094.152344 C 424.929688 1094.152344 424.445312 1094.554688 424.445312 1096.738281 M 407.972656 1098.546875 C 408.019531 1100.398438 408.3125 1101.210938 408.628906 1100.359375 C 408.949219 1099.503906 409.625 1097.992188 410.136719 1096.996094 C 410.828125 1095.652344 410.65625 1095.183594 409.480469 1095.183594 C 408.363281 1095.183594 407.914062 1096.179688 407.972656 1098.546875 M 439.152344 1096.847656 C 438.382812 1097.679688 438.269531 1098.289062 438.890625 1098.289062 C 439.484375 1098.289062 439.96875 1099.015625 439.96875 1099.902344 C 439.96875 1100.789062 440.433594 1101.226562 441.003906 1100.875 C 442.210938 1100.128906 442.394531 1096.558594 441.261719 1095.871094 C 440.832031 1095.613281 439.882812 1096.050781 439.152344 1096.847656 M 828.191406 1108.9375 L 816.539062 1120.621094 L 816.824219 1136.882812 L 817.113281 1153.148438 L 845.039062 1125.199219 L 872.96875 1097.253906 L 839.839844 1097.253906 Z M 868.042969 1105.300781 C 864.214844 1109.15625 861.09375 1112.53125 861.105469 1112.800781 C 861.136719 1113.511719 897.105469 1150.023438 897.773438 1150.023438 C 898.082031 1150.023438 898.335938 1143.382812 898.335938 1135.261719 L 898.335938 1120.5 L 887.195312 1109.394531 C 881.066406 1103.285156 875.816406 1098.289062 875.527344 1098.289062 C 875.234375 1098.289062 871.867188 1101.445312 868.042969 1105.300781 M 714.886719 1106.261719 L 707.878906 1113.199219 L 744.683594 1150.050781 L 744.972656 1135.859375 L 745.261719 1121.664062 L 734.125 1110.496094 C 728 1104.351562 722.742188 1099.324219 722.441406 1099.324219 C 722.140625 1099.324219 718.738281 1102.445312 714.886719 1106.261719 M 433.242188 1102.019531 C 431.253906 1103.550781 431.292969 1103.597656 434.277344 1103.277344 C 435.984375 1103.09375 437.296875 1102.492188 437.199219 1101.9375 C 436.90625 1100.292969 435.449219 1100.324219 433.242188 1102.019531 M 449.539062 1109.152344 C 449.550781 1111.429688 449.765625 1112.238281 450.011719 1110.953125 C 450.257812 1109.664062 450.25 1107.800781 449.992188 1106.8125 C 449.730469 1105.824219 449.527344 1106.878906 449.539062 1109.152344 M -140.4375 1115.296875 C -142.375 1117.625 -141.039062 1119.894531 -136.660156 1121.722656 C -133.0625 1123.226562 -132.929688 1123.433594 -134.71875 1124.742188 C -136.054688 1125.71875 -137.207031 1125.84375 -138.503906 1125.148438 C -139.71875 1124.5 -140.589844 1124.511719 -141.007812 1125.191406 C -142.058594 1126.886719 -136.714844 1128.382812 -133.699219 1127.234375 C -131.59375 1126.433594 -131.113281 1125.632812 -131.371094 1123.378906 C -131.625 1121.183594 -132.464844 1120.308594 -135.074219 1119.539062 C -138.898438 1118.414062 -138.996094 1116.394531 -135.222656 1116.394531 C -131.195312 1116.394531 -131.351562 1114.355469 -135.410156 1114.015625 C -137.796875 1113.816406 -139.589844 1114.273438 -140.4375 1115.296875 M -128.960938 1114.488281 C -128.75 1114.96875 -127.460938 1118.292969 -126.101562 1121.875 C -124.457031 1126.199219 -123.125 1128.285156 -122.132812 1128.082031 C -121.308594 1127.914062 -119.519531 1125.023438 -118.148438 1121.652344 C -115.257812 1114.539062 -115.160156 1113.808594 -117.097656 1113.808594 C -117.910156 1113.808594 -119.136719 1115.839844 -119.910156 1118.464844 C -120.667969 1121.027344 -121.609375 1123.121094 -122.007812 1123.121094 C -122.40625 1123.121094 -123.390625 1121.144531 -124.195312 1118.722656 C -125.074219 1116.085938 -126.398438 1114.183594 -127.503906 1113.96875 C -128.519531 1113.773438 -129.175781 1114.003906 -128.960938 1114.488281 M -111.835938 1115.652344 C -117.015625 1121.378906 -110.835938 1129.753906 -103.351562 1127.144531 C -100.863281 1126.277344 -100.351562 1125.566406 -100.589844 1123.308594 C -100.90625 1120.332031 -103.703125 1119.027344 -105.628906 1120.957031 C -106.449219 1121.773438 -106.277344 1122.085938 -105.003906 1122.085938 C -104.035156 1122.085938 -103.246094 1122.816406 -103.246094 1123.703125 C -103.246094 1124.90625 -104.109375 1125.238281 -106.605469 1124.996094 C -109.429688 1124.726562 -110.023438 1124.207031 -110.304688 1121.765625 C -110.738281 1117.988281 -108.773438 1115.714844 -105.410156 1116.09375 C -103.933594 1116.261719 -102.496094 1115.929688 -102.210938 1115.363281 C -101.917969 1114.777344 -103.523438 1114.191406 -105.886719 1114.019531 C -108.949219 1113.792969 -110.550781 1114.234375 -111.835938 1115.652344 M 4.320312 1118.5625 C 1.535156 1125.0625 0.808594 1128.296875 2.128906 1128.296875 C 2.734375 1128.296875 3.597656 1127.664062 4.054688 1126.894531 C 5.445312 1124.539062 10.304688 1124.214844 12.234375 1126.351562 C 15.339844 1129.78125 15.570312 1127.386719 12.789062 1120.558594 C 9.394531 1112.222656 7.257812 1111.71875 4.320312 1118.5625 M 18.023438 1120.710938 C 18.21875 1125.082031 18.804688 1127.769531 19.625 1128.039062 C 20.578125 1128.355469 20.917969 1126.539062 20.917969 1121.136719 C 20.917969 1115.21875 20.609375 1113.808594 19.320312 1113.808594 C 18.003906 1113.808594 17.773438 1115.042969 18.023438 1120.710938 M 125.421875 1120.535156 L 125.421875 1127.261719 L 130.59375 1127.261719 C 133.441406 1127.261719 135.769531 1126.796875 135.769531 1126.226562 C 135.769531 1125.65625 134.140625 1125.191406 132.148438 1125.191406 C 129.617188 1125.191406 128.527344 1124.722656 128.527344 1123.640625 C 128.527344 1122.605469 129.558594 1122.085938 131.628906 1122.085938 C 133.335938 1122.085938 134.734375 1121.621094 134.734375 1121.050781 C 134.734375 1120.484375 133.335938 1120.019531 131.628906 1120.019531 C 129.214844 1120.019531 128.527344 1119.558594 128.527344 1117.949219 C 128.527344 1116.273438 129.214844 1115.878906 132.148438 1115.878906 C 134.140625 1115.878906 135.769531 1115.414062 135.769531 1114.84375 C 135.769531 1114.273438 133.441406 1113.808594 130.59375 1113.808594 L 125.421875 1113.808594 Z M 138.871094 1120.535156 C 138.871094 1125.824219 139.203125 1127.261719 140.425781 1127.261719 C 141.285156 1127.261719 141.976562 1126.339844 141.976562 1125.191406 C 141.976562 1123.789062 142.667969 1123.121094 144.113281 1123.121094 C 147.5625 1123.121094 150.253906 1121.15625 150.253906 1118.636719 C 150.253906 1115.167969 148.300781 1113.808594 143.320312 1113.808594 L 138.871094 1113.808594 Z M 153.414062 1115.296875 C 151.566406 1117.519531 152.808594 1119.988281 156.464844 1121.371094 C 159.585938 1122.546875 160.488281 1124.5 158.484375 1125.738281 C 157.890625 1126.105469 156.707031 1125.824219 155.855469 1125.117188 C 154.71875 1124.175781 153.996094 1124.136719 153.15625 1124.980469 C 152.316406 1125.820312 152.742188 1126.460938 154.753906 1127.378906 C 158.867188 1129.25 162.917969 1127.167969 162.480469 1123.402344 C 162.226562 1121.242188 161.378906 1120.378906 158.757812 1119.632812 C 154.921875 1118.539062 154.835938 1116.394531 158.625 1116.394531 C 162.65625 1116.394531 162.5 1114.355469 158.441406 1114.015625 C 156.054688 1113.816406 154.261719 1114.273438 153.414062 1115.296875 M 259.109375 1120.792969 C 259.28125 1124.75 259.863281 1127.683594 260.449219 1127.558594 C 261.019531 1127.441406 261.628906 1126.421875 261.804688 1125.292969 C 262.03125 1123.851562 263.078125 1123.148438 265.324219 1122.925781 C 269.488281 1122.507812 271.085938 1120.023438 269.46875 1116.476562 C 268.421875 1114.175781 267.601562 1113.808594 263.527344 1113.808594 L 258.800781 1113.808594 Z M 272.863281 1120.539062 L 272.863281 1127.261719 L 277.621094 1127.261719 C 282.988281 1127.261719 285.796875 1125.089844 285.796875 1120.941406 C 285.796875 1116.1875 283.101562 1113.808594 277.71875 1113.8125 L 272.863281 1113.816406 Z M 288.902344 1120.535156 C 288.902344 1125.824219 289.234375 1127.261719 290.453125 1127.261719 C 291.417969 1127.261719 292.007812 1126.285156 292.007812 1124.671875 C 292.007812 1122.488281 292.488281 1122.085938 295.109375 1122.085938 C 296.816406 1122.085938 298.214844 1121.621094 298.214844 1121.050781 C 298.214844 1120.484375 296.816406 1120.019531 295.109375 1120.019531 C 292.695312 1120.019531 292.007812 1119.558594 292.007812 1117.949219 C 292.007812 1116.273438 292.695312 1115.878906 295.628906 1115.878906 C 297.621094 1115.878906 299.25 1115.414062 299.25 1114.84375 C 299.25 1114.273438 296.921875 1113.808594 294.074219 1113.808594 L 288.902344 1113.808594 Z M 396.511719 1120.535156 C 396.511719 1125.824219 396.84375 1127.261719 398.0625 1127.261719 C 398.925781 1127.261719 399.613281 1126.339844 399.613281 1125.191406 C 399.613281 1123.613281 400.304688 1123.121094 402.511719 1123.121094 C 405.957031 1123.121094 407.890625 1121.449219 407.890625 1118.464844 C 407.890625 1115.167969 405.867188 1113.808594 400.960938 1113.808594 L 396.511719 1113.808594 Z M 410.996094 1120.472656 C 410.996094 1124.140625 411.460938 1127.425781 412.03125 1127.777344 C 412.65625 1128.164062 413.066406 1126.753906 413.066406 1124.21875 C 413.066406 1119.066406 414.382812 1118.890625 417.453125 1123.625 C 418.738281 1125.609375 420.605469 1127.242188 421.601562 1127.246094 C 423.140625 1127.257812 423.410156 1126.253906 423.410156 1120.535156 C 423.410156 1115.367188 423.066406 1113.808594 421.917969 1113.808594 C 420.90625 1113.808594 420.324219 1115.207031 420.109375 1118.148438 L 419.789062 1122.488281 L 416.929688 1118.148438 C 412.671875 1111.6875 410.996094 1112.347656 410.996094 1120.472656 M 428.199219 1115.734375 C 423.691406 1120.714844 429.175781 1129.644531 435.460938 1127.5625 C 437.761719 1126.800781 438.488281 1125.855469 438.738281 1123.300781 C 439.027344 1120.382812 438.769531 1120.015625 436.410156 1120.015625 C 434.953125 1120.015625 433.757812 1120.484375 433.757812 1121.050781 C 433.757812 1121.621094 434.457031 1122.085938 435.3125 1122.085938 C 436.164062 1122.085938 436.863281 1122.785156 436.863281 1123.640625 C 436.863281 1125.515625 432.648438 1125.734375 430.863281 1123.949219 C 429.175781 1122.261719 429.296875 1118.46875 431.082031 1116.988281 C 431.886719 1116.320312 433.636719 1115.914062 434.964844 1116.085938 C 436.292969 1116.253906 437.613281 1115.929688 437.898438 1115.363281 C 438.191406 1114.777344 436.585938 1114.191406 434.222656 1114.019531 C 431.105469 1113.789062 429.558594 1114.230469 428.199219 1115.734375 M 452.15625 1114.585938 C 451.964844 1115.011719 451.824219 1116.757812 451.839844 1118.464844 C 451.855469 1120.585938 452.328125 1121.46875 453.324219 1121.257812 C 454.125 1121.085938 455.164062 1121.550781 455.636719 1122.289062 C 456.15625 1123.109375 456.496094 1121.714844 456.507812 1118.722656 C 456.519531 1114.542969 456.222656 1113.808594 454.515625 1113.808594 C 453.410156 1113.808594 452.347656 1114.160156 452.15625 1114.585938 M 141.976562 1118.464844 C 141.976562 1120.707031 142.394531 1121.136719 144.304688 1120.867188 C 145.832031 1120.648438 146.632812 1119.824219 146.632812 1118.464844 C 146.632812 1117.105469 145.832031 1116.28125 144.304688 1116.066406 C 142.394531 1115.792969 141.976562 1116.226562 141.976562 1118.464844 M 262 1118.464844 C 262 1120.707031 262.417969 1121.136719 264.328125 1120.867188 C 265.855469 1120.648438 266.65625 1119.824219 266.65625 1118.464844 C 266.65625 1117.105469 265.855469 1116.28125 264.328125 1116.066406 C 262.417969 1115.792969 262 1116.226562 262 1118.464844 M 276.140625 1116.570312 C 274.695312 1118.015625 275.441406 1124.21875 277.144531 1124.871094 C 280.949219 1126.332031 284.332031 1120.652344 281.613281 1117.375 C 280.320312 1115.816406 277.332031 1115.378906 276.140625 1116.570312 M 399.613281 1118.464844 C 399.613281 1120.304688 400.175781 1121.050781 401.558594 1121.050781 C 404.308594 1121.050781 406.121094 1118.660156 404.554688 1117.097656 C 402.351562 1114.890625 399.613281 1115.648438 399.613281 1118.464844 M 7.089844 1119.503906 C 6.238281 1121.730469 6.75 1122.386719 8.988281 1121.917969 C 10.457031 1121.617188 10.488281 1121.316406 9.238281 1119.613281 C 7.875 1117.761719 7.761719 1117.753906 7.089844 1119.503906 M 433.839844 1139.246094 C 433.890625 1140.449219 434.136719 1140.695312 434.464844 1139.871094 C 434.765625 1139.125 434.726562 1138.230469 434.382812 1137.886719 C 434.039062 1137.542969 433.796875 1138.15625 433.839844 1139.246094 M 675.261719 1139.933594 L 673.289062 1142.261719 L 675.617188 1140.292969 C 677.804688 1138.441406 678.417969 1137.605469 677.589844 1137.605469 C 677.390625 1137.605469 676.34375 1138.65625 675.261719 1139.933594 M 728.03125 1141.90625 C 727.558594 1142.667969 727.746094 1142.820312 728.550781 1142.324219 C 729.261719 1141.882812 730.796875 1142.378906 732.074219 1143.457031 L 734.335938 1145.367188 L 732.363281 1143.039062 C 730.15625 1140.429688 729.109375 1140.15625 728.03125 1141.90625 M 863.175781 1160.113281 L 844.394531 1179.511719 L 859.417969 1179.796875 L 874.4375 1180.085938 L 885.777344 1168.417969 C 889.796875 1164.273438 893.824219 1160.136719 897.859375 1156.011719 C 898.777344 1155.101562 885.039062 1140.710938 883.25 1140.710938 C 882.539062 1140.710938 873.507812 1149.441406 863.175781 1160.113281 M 824.539062 1149.164062 L 817.679688 1156.75 L 828.777344 1167.894531 C 834.878906 1174.023438 840.375 1178.914062 840.984375 1178.757812 C 842.273438 1178.433594 855.382812 1164.566406 854.730469 1164.222656 C 854.488281 1164.09375 849.140625 1158.949219 842.847656 1152.789062 L 831.398438 1141.582031 Z M 671.402344 1149.839844 L 664.503906 1156.792969 L 675.644531 1167.898438 L 686.785156 1179.007812 L 693.96875 1171.765625 L 701.15625 1164.523438 L 696.535156 1159.773438 C 693.992188 1157.164062 688.851562 1152.292969 685.109375 1148.953125 L 678.304688 1142.886719 Z M 399.613281 1145.195312 C 399.613281 1147.425781 400.789062 1147.960938 402.324219 1146.425781 C 404.28125 1144.472656 404.121094 1143.816406 401.683594 1143.816406 C 400.546875 1143.816406 399.613281 1144.4375 399.613281 1145.195312 M 442.035156 1148.050781 C 442.035156 1148.566406 442.96875 1148.988281 444.105469 1148.988281 C 445.242188 1148.988281 446.175781 1148.808594 446.175781 1148.59375 C 446.175781 1148.375 445.242188 1147.953125 444.105469 1147.652344 C 442.96875 1147.355469 442.035156 1147.535156 442.035156 1148.050781 M 734.269531 1165.800781 L 731.230469 1169.164062 L 734.59375 1166.125 C 737.730469 1163.292969 738.433594 1162.441406 737.632812 1162.441406 C 737.457031 1162.441406 735.941406 1163.953125 734.269531 1165.800781 M 704.230469 1166.835938 L 702.261719 1169.164062 L 704.589844 1167.195312 C 706.777344 1165.34375 707.386719 1164.507812 706.558594 1164.507812 C 706.363281 1164.507812 705.316406 1165.558594 704.230469 1166.835938 M -129.941406 1167.820312 C -132.5625 1170.441406 -130.894531 1174.175781 -126.730469 1175.003906 C -123.753906 1175.59375 -124.726562 1177.441406 -128.011719 1177.441406 C -132.265625 1177.441406 -132.78125 1178.507812 -129.238281 1179.976562 C -122.605469 1182.722656 -118.609375 1175.679688 -125.121094 1172.714844 C -129.078125 1170.914062 -128.699219 1169.058594 -124.457031 1169.449219 C -121.5 1169.722656 -121.445312 1169.664062 -123.359375 1168.15625 C -125.773438 1166.261719 -128.25 1166.132812 -129.941406 1167.820312 M -119.28125 1168.785156 C -117.582031 1174.4375 -114.648438 1180.03125 -113.386719 1180.03125 C -111.976562 1180.03125 -106.738281 1167.914062 -107.722656 1166.929688 C -108.796875 1165.855469 -110.132812 1167.542969 -111.503906 1171.699219 C -112.265625 1174.003906 -113.175781 1175.890625 -113.53125 1175.890625 C -113.882812 1175.890625 -114.855469 1173.945312 -115.691406 1171.570312 C -117.335938 1166.894531 -120.613281 1164.355469 -119.28125 1168.785156 M -103.191406 1168.398438 C -106.34375 1170.949219 -106.398438 1176.648438 -103.292969 1179.164062 C -100.425781 1181.484375 -98.214844 1181.566406 -95.210938 1179.464844 C -92.027344 1177.234375 -92.703125 1173.410156 -96.359375 1172.976562 C -97.871094 1172.796875 -99.105469 1173.144531 -99.105469 1173.753906 C -99.105469 1174.359375 -98.40625 1174.855469 -97.554688 1174.855469 C -96.699219 1174.855469 -96 1175.554688 -96 1176.40625 C -96 1178.441406 -100.511719 1178.453125 -102.199219 1176.421875 C -103.902344 1174.371094 -102.664062 1169.714844 -100.378906 1169.566406 C -99.394531 1169.503906 -97.445312 1169.550781 -96.050781 1169.671875 C -93.832031 1169.859375 -93.683594 1169.675781 -94.882812 1168.230469 C -96.6875 1166.058594 -100.394531 1166.128906 -103.191406 1168.398438 M 13.71875 1171.375 C 12.523438 1174.078125 11.292969 1177.484375 10.984375 1178.9375 L 10.425781 1181.582031 L 12.476562 1179.253906 C 14.914062 1176.484375 19.375 1176.199219 20.789062 1178.726562 C 21.34375 1179.71875 22.128906 1180.195312 22.535156 1179.789062 C 23.460938 1178.863281 18.566406 1167.347656 17.027344 1166.832031 C 16.40625 1166.625 14.917969 1168.667969 13.71875 1171.375 M 26.089844 1173.15625 C 26.089844 1176.871094 26.558594 1180.195312 27.125 1180.546875 C 27.773438 1180.945312 28.160156 1178.832031 28.160156 1174.917969 C 28.160156 1171.46875 28.195312 1168.308594 28.238281 1167.898438 C 28.28125 1167.484375 27.816406 1166.980469 27.203125 1166.777344 C 26.488281 1166.539062 26.089844 1168.800781 26.089844 1173.15625 M 134.734375 1173.246094 L 134.734375 1180.03125 L 139.90625 1180.03125 C 142.753906 1180.03125 145.082031 1179.5625 145.082031 1178.996094 C 145.082031 1178.425781 143.21875 1177.960938 140.941406 1177.960938 C 137.953125 1177.960938 136.804688 1177.527344 136.804688 1176.410156 C 136.804688 1175.324219 137.894531 1174.855469 140.425781 1174.855469 C 144.945312 1174.855469 145.21875 1173.03125 140.761719 1172.59375 C 135.953125 1172.117188 135.847656 1169.882812 140.621094 1169.492188 C 146.195312 1169.03125 145.523438 1167.15625 139.648438 1166.78125 L 134.734375 1166.464844 Z M 147.578125 1167.996094 C 146.664062 1170.367188 147.597656 1180.5625 148.703125 1180.328125 C 149.269531 1180.210938 149.886719 1179.160156 150.066406 1178 C 150.308594 1176.464844 151.175781 1175.890625 153.265625 1175.890625 C 157.421875 1175.890625 159.335938 1171.523438 156.445312 1168.632812 C 154.097656 1166.28125 148.390625 1165.871094 147.578125 1167.996094 M 161.191406 1168.203125 C 160.296875 1169.097656 159.566406 1170.191406 159.566406 1170.628906 C 159.566406 1171.710938 162.765625 1174.390625 165 1175.183594 C 168.4375 1176.402344 167.019531 1178.230469 163.1875 1177.511719 C 158.808594 1176.6875 158.234375 1178.539062 162.382812 1180.117188 C 169.332031 1182.757812 172.8125 1175.839844 166.035156 1172.859375 C 161.828125 1171.007812 161.71875 1169.683594 165.773438 1169.683594 C 169.089844 1169.683594 169.945312 1168.242188 167.242188 1167.207031 C 164.601562 1166.191406 162.925781 1166.46875 161.191406 1168.203125 M 269.242188 1173.242188 C 269.242188 1176.910156 269.710938 1180.195312 270.277344 1180.546875 C 270.863281 1180.910156 271.3125 1180.039062 271.3125 1178.539062 C 271.3125 1176.328125 271.792969 1175.890625 274.210938 1175.890625 C 277.507812 1175.890625 279.589844 1174.234375 279.589844 1171.617188 C 279.589844 1168.769531 276.632812 1166.578125 272.792969 1166.578125 L 269.242188 1166.578125 Z M 282.351562 1167.269531 C 281.96875 1167.648438 281.660156 1170.671875 281.660156 1173.992188 L 281.660156 1180.03125 L 286.15625 1180.03125 C 293.847656 1180.03125 297 1173.167969 291.347656 1168.722656 C 288.714844 1166.652344 283.765625 1165.851562 282.351562 1167.269531 M 297.179688 1173.882812 C 297.179688 1178.488281 297.5625 1180.949219 298.214844 1180.546875 C 298.785156 1180.195312 299.25 1178.773438 299.25 1177.382812 C 299.25 1175.183594 299.722656 1174.855469 302.871094 1174.855469 C 304.863281 1174.855469 306.492188 1174.390625 306.492188 1173.820312 C 306.492188 1173.253906 304.863281 1172.785156 302.871094 1172.785156 C 300.34375 1172.785156 299.25 1172.320312 299.25 1171.234375 C 299.25 1170.152344 300.34375 1169.683594 302.871094 1169.683594 C 305.398438 1169.683594 306.492188 1169.214844 306.492188 1168.128906 C 306.492188 1166.980469 305.285156 1166.578125 301.835938 1166.578125 L 297.179688 1166.578125 Z M 405 1173.5625 C 405.285156 1180.105469 406.949219 1182.832031 407.707031 1178 C 407.925781 1176.605469 408.820312 1175.890625 410.34375 1175.890625 C 413.296875 1175.890625 415.132812 1174.039062 415.132812 1171.0625 C 415.132812 1168.292969 412.375 1166.578125 407.914062 1166.578125 L 404.695312 1166.578125 Z M 418.238281 1173.304688 C 418.238281 1177.097656 418.691406 1180.03125 419.273438 1180.03125 C 419.84375 1180.03125 420.308594 1178.398438 420.308594 1176.410156 C 420.308594 1171.851562 421.214844 1171.855469 424.320312 1176.414062 C 428.066406 1181.917969 429.621094 1181.175781 429.621094 1173.882812 C 429.621094 1170.5 429.15625 1167.449219 428.585938 1167.097656 C 427.527344 1166.441406 427.359375 1167.042969 427.214844 1172.011719 C 427.171875 1173.578125 426.878906 1174.847656 426.566406 1174.835938 C 426.253906 1174.824219 424.6875 1172.960938 423.085938 1170.695312 C 421.484375 1168.429688 419.738281 1166.578125 419.207031 1166.578125 C 418.675781 1166.578125 418.238281 1169.605469 418.238281 1173.304688 M 435.023438 1168.191406 C 432.261719 1170.125 431.878906 1175.929688 434.351562 1178.402344 C 436.269531 1180.324219 442.128906 1180.558594 443.898438 1178.789062 C 444.582031 1178.105469 445.140625 1176.476562 445.140625 1175.167969 C 445.140625 1173.210938 444.585938 1172.785156 442.035156 1172.785156 C 440.328125 1172.785156 438.933594 1173.253906 438.933594 1173.820312 C 438.933594 1174.390625 439.632812 1174.855469 440.484375 1174.855469 C 441.339844 1174.855469 442.035156 1175.585938 442.035156 1176.476562 C 442.035156 1178.691406 436.929688 1178.039062 435.421875 1175.632812 C 433.726562 1172.925781 435.890625 1170.214844 439.800781 1170.140625 C 443.664062 1170.066406 445.136719 1168.898438 443.042969 1167.574219 C 440.769531 1166.136719 437.609375 1166.378906 435.023438 1168.191406 M 150.253906 1171.753906 C 150.253906 1173.457031 150.789062 1173.890625 152.582031 1173.636719 C 153.863281 1173.453125 154.910156 1172.605469 154.910156 1171.753906 C 154.910156 1170.898438 153.863281 1170.050781 152.582031 1169.867188 C 150.789062 1169.617188 150.253906 1170.050781 150.253906 1171.753906 M 271.507812 1171.492188 C 271.703125 1172.488281 272.777344 1173.304688 273.898438 1173.304688 C 275.023438 1173.304688 276.097656 1172.488281 276.289062 1171.492188 C 276.550781 1170.136719 275.949219 1169.683594 273.898438 1169.683594 C 271.847656 1169.683594 271.25 1170.136719 271.507812 1171.492188 M 284.765625 1173.753906 C 284.765625 1177.179688 285.125 1177.960938 286.707031 1177.960938 C 291.695312 1177.960938 292.535156 1170.4375 287.609375 1169.875 C 284.917969 1169.5625 284.765625 1169.773438 284.765625 1173.753906 M 407.890625 1171.753906 C 407.890625 1173.457031 408.429688 1173.890625 410.21875 1173.636719 C 411.5 1173.453125 412.546875 1172.605469 412.546875 1171.753906 C 412.546875 1170.898438 411.5 1170.050781 410.21875 1169.867188 C 408.429688 1169.617188 407.890625 1170.050781 407.890625 1171.753906 M 15.371094 1173.304688 C 14.96875 1174.355469 15.421875 1174.855469 16.78125 1174.855469 C 18.136719 1174.855469 18.589844 1174.355469 18.1875 1173.304688 C 17.859375 1172.449219 17.226562 1171.753906 16.78125 1171.753906 C 16.332031 1171.753906 15.699219 1172.449219 15.371094 1173.304688 M 376.363281 1191.351562 C 374.726562 1194.515625 375.449219 1198.699219 377.890625 1200.210938 C 379.898438 1201.453125 380.367188 1199.792969 378.570312 1197.800781 C 376.433594 1195.445312 376.375 1193.09375 378.402344 1191.410156 C 380.164062 1189.949219 380.453125 1188.308594 378.949219 1188.308594 C 378.394531 1188.308594 377.230469 1189.679688 376.363281 1191.351562 M 380.988281 1189.34375 C 380.988281 1189.910156 381.804688 1190.375 382.800781 1190.375 C 384.179688 1190.375 384.609375 1191.238281 384.609375 1193.976562 C 384.609375 1195.957031 385.0625 1197.578125 385.617188 1197.578125 C 386.171875 1197.578125 386.484375 1195.957031 386.316406 1193.976562 C 386.050781 1190.894531 386.320312 1190.375 388.214844 1190.375 C 389.429688 1190.375 390.136719 1189.910156 389.785156 1189.34375 C 389.433594 1188.773438 387.3125 1188.308594 385.066406 1188.308594 C 382.824219 1188.308594 380.988281 1188.773438 380.988281 1189.34375 M 464.117188 1189.613281 C 462.941406 1191.511719 463.675781 1196.9375 465.328125 1198.59375 C 467.40625 1200.667969 468.332031 1199.324219 466.683594 1196.621094 C 465.511719 1194.707031 465.566406 1194.203125 467.074219 1193.085938 C 468.714844 1191.867188 468.699219 1191.667969 466.851562 1190.082031 C 465.394531 1188.835938 464.671875 1188.710938 464.117188 1189.613281 M 469.972656 1189.121094 C 469.972656 1189.746094 470.4375 1190.542969 471.007812 1190.894531 C 472.4375 1191.777344 472.308594 1196.941406 470.820312 1198.429688 C 470.144531 1199.101562 469.949219 1200.011719 470.386719 1200.445312 C 471.582031 1201.644531 474.113281 1197.59375 474.113281 1194.476562 C 474.113281 1192.96875 473.179688 1190.886719 472.042969 1189.859375 C 470.90625 1188.828125 469.972656 1188.496094 469.972656 1189.121094 M 397.027344 1191.410156 C 396.671875 1191.984375 397.449219 1192.453125 398.777344 1192.460938 L 401.167969 1192.476562 L 398.578125 1193.785156 C 394.875 1195.660156 395.277344 1198.066406 399.355469 1198.460938 C 402.441406 1198.757812 402.71875 1198.542969 402.71875 1195.820312 C 402.71875 1191.492188 398.835938 1188.484375 397.027344 1191.410156 M 406.597656 1191.089844 C 405.320312 1191.425781 404.789062 1192.601562 404.789062 1195.109375 C 404.789062 1199.285156 406.574219 1199.902344 407.046875 1195.886719 C 407.523438 1191.859375 409.960938 1191.503906 409.960938 1195.464844 C 409.960938 1197.21875 410.425781 1198.652344 410.996094 1198.652344 C 412.453125 1198.652344 412.289062 1193.117188 410.789062 1191.617188 C 410.105469 1190.933594 409.289062 1190.429688 408.976562 1190.496094 C 408.664062 1190.5625 407.59375 1190.828125 406.597656 1191.089844 M 415.394531 1191.066406 C 413.601562 1191.78125 413.769531 1194.453125 415.652344 1195.175781 C 416.503906 1195.503906 417.203125 1196.171875 417.203125 1196.664062 C 417.203125 1197.152344 416.503906 1197.285156 415.652344 1196.960938 C 414.796875 1196.632812 414.101562 1196.828125 414.101562 1197.398438 C 414.101562 1199.203125 416.929688 1199.601562 418.914062 1198.078125 C 420.746094 1196.671875 420.71875 1196.519531 418.238281 1194.429688 C 416.371094 1192.859375 416.179688 1192.425781 417.550781 1192.867188 C 418.757812 1193.257812 419.296875 1193.035156 419.035156 1192.253906 C 418.550781 1190.796875 417.183594 1190.351562 415.394531 1191.066406 M 423.152344 1191.089844 C 421.738281 1191.460938 421.34375 1192.675781 421.34375 1196.660156 C 421.34375 1199.464844 421.808594 1201.757812 422.378906 1201.757812 C 422.945312 1201.757812 423.410156 1201.089844 423.410156 1200.273438 C 423.410156 1199.425781 424.628906 1198.652344 426.257812 1198.464844 C 429.453125 1198.097656 430.703125 1194.480469 428.539062 1191.871094 C 427.28125 1190.359375 426.425781 1190.234375 423.152344 1191.089844 M 432.207031 1191.410156 C 431.855469 1191.980469 432.527344 1192.445312 433.699219 1192.445312 C 434.867188 1192.445312 435.828125 1192.941406 435.828125 1193.542969 C 435.828125 1194.144531 435.40625 1194.375 434.886719 1194.054688 C 433.496094 1193.195312 430.65625 1194.535156 430.65625 1196.050781 C 430.65625 1198.160156 433.160156 1199.652344 435.625 1199.007812 C 439.488281 1197.996094 438.167969 1190.375 434.128906 1190.375 C 433.421875 1190.375 432.558594 1190.84375 432.207031 1191.410156 M 446.851562 1192.269531 C 444.652344 1194.699219 444.695312 1195.859375 447.058594 1198 C 448.988281 1199.746094 452.382812 1199.359375 452.382812 1197.398438 C 452.382812 1196.828125 451.699219 1196.625 450.863281 1196.945312 C 450.03125 1197.265625 449.070312 1197.082031 448.734375 1196.539062 C 448.398438 1195.996094 449.316406 1195.550781 450.769531 1195.550781 C 453.796875 1195.550781 454.140625 1194.351562 451.792969 1192.003906 C 449.703125 1189.914062 448.945312 1189.957031 446.851562 1192.269531 M 456.261719 1191.089844 C 454.984375 1191.425781 454.453125 1192.601562 454.453125 1195.109375 C 454.453125 1199.285156 456.238281 1199.902344 456.710938 1195.886719 C 457.1875 1191.859375 459.625 1191.503906 459.625 1195.464844 C 459.625 1197.21875 460.09375 1198.652344 460.660156 1198.652344 C 462.421875 1198.652344 461.875 1191.703125 460.058594 1191.003906 C 459.160156 1190.660156 458.34375 1190.429688 458.246094 1190.496094 C 458.152344 1190.5625 457.257812 1190.828125 456.261719 1191.089844 M 390.300781 1195.03125 C 390.300781 1197.023438 390.769531 1198.652344 391.335938 1198.652344 C 391.90625 1198.652344 392.371094 1197.65625 392.371094 1196.441406 C 392.371094 1195.222656 393.1875 1193.609375 394.183594 1192.851562 C 395.828125 1191.601562 395.734375 1191.472656 393.148438 1191.445312 C 390.578125 1191.414062 390.300781 1191.765625 390.300781 1195.03125 M 439.96875 1195.03125 C 439.96875 1197.023438 440.433594 1198.652344 441 1198.652344 C 441.570312 1198.652344 442.035156 1197.65625 442.035156 1196.441406 C 442.035156 1195.222656 442.851562 1193.609375 443.847656 1192.851562 C 445.492188 1191.601562 445.398438 1191.472656 442.8125 1191.445312 C 440.246094 1191.414062 439.96875 1191.765625 439.96875 1195.03125 M 424.125 1193.113281 C 422.660156 1194.578125 423.488281 1196.585938 425.558594 1196.585938 C 427.003906 1196.585938 427.59375 1196.023438 427.367188 1194.859375 C 427 1192.957031 425.230469 1192.003906 424.125 1193.113281 M 448.246094 1193.480469 C 448.246094 1194.050781 448.972656 1194.515625 449.859375 1194.515625 C 450.746094 1194.515625 451.183594 1194.050781 450.832031 1193.480469 C 450.480469 1192.910156 449.753906 1192.445312 449.21875 1192.445312 C 448.683594 1192.445312 448.246094 1192.910156 448.246094 1193.480469 M 397.542969 1196.585938 C 397.542969 1197.152344 398.242188 1197.621094 399.097656 1197.621094 C 399.949219 1197.621094 400.648438 1197.152344 400.648438 1196.585938 C 400.648438 1196.015625 399.949219 1195.550781 399.097656 1195.550781 C 398.242188 1195.550781 397.542969 1196.015625 397.542969 1196.585938 M 433.253906 1196.601562 C 433.609375 1197.179688 434.335938 1197.386719 434.863281 1197.058594 C 436.300781 1196.171875 436.035156 1195.550781 434.214844 1195.550781 C 433.328125 1195.550781 432.894531 1196.023438 433.253906 1196.601562 " fill-opacity="1" fill-rule="evenodd"/></g></svg>