<?xml version="1.0" encoding="UTF-8"?>
<svg xmlns="http://www.w3.org/2000/svg" data-name="Layer 1" version="1.1" viewBox="0 0 2597 694">
  <path d="M2453.85,282.06h-118.38c-25.84,0-54.61,2.5-80.03-2.92-17.92-3.75-37.1-12.93-50.85-25.03-20.43-18.77-33.76-42.13-35.01-70.08-1.67-42.13-2.92-79.26,27.09-112.21,24.18-26.7,55.44-34.62,90.04-36.29v-.83h117.55c25.84,0,56.69-2.92,81.7,2.5,22.09,4.59,42.52,14.18,58.77,30.03,21.68,20.86,30.43,46.3,30.85,76.34.83,39.21.83,73.42-27.93,103.45-25.84,26.7-57.52,34.21-93.79,35.04ZM2522.63,131.47c-1.25-12.1-9.59-25.45-18.76-32.95-7.92-6.67-18.34-11.68-28.76-13.35-12.09-2.09-25.01-1.67-37.51-1.67h-56.27c-35.01,0-72.11-2.09-107.13.83l.42.42c-19.59,4.59-34.18,11.26-45.02,29.2-9.17,14.6-7.09,32.95-7.09,49.64,0,8.34-.83,17.52,1.25,25.45,3.33,13.77,13.34,27.53,25.84,34.62,7.09,3.75,15.42,6.67,23.34,7.51,32.51,3.75,67.53,1.25,100.04,1.25,30.43,0,63.36,2.5,93.37-.83,18.34-1.67,32.93-7.51,45.02-21.69,15.84-19.19,13.34-54.65,11.25-78.42ZM2137.89,281.65c-15.42,0-35.43,2.09-50.44,0-4.17-.42-2.5-7.51-2.5-11.26v-98.03c0-9.18-.83-42.13-.83-42.13-2.08-10.85-7.5-20.86-15.01-28.37-8.75-8.76-19.17-14.18-31.26-16.69-19.17-4.17-42.93-1.67-62.52-1.67h-110.04v197.73h-53.35V95.6c0-10.85,2.5-53.39-1.67-60.9v-.42h145.89c31.26,0,67.94-3.34,98.37,4.17,20.01,5.01,39.18,15.43,53.77,30.03,12.5,12.51,21.68,27.53,26.26,45.05,5.42,21.27,3.33,46.3,3.33,67.99v100.12ZM1810.26,33.86v.42h0v-.42ZM1928.64,408.46c22.93,0,49.19-2.92,71.28,2.5,15.42,3.75,29.59,12.51,40.85,23.36,14.17,14.18,23.34,32.95,23.34,53.39s-7.5,39.21-21.68,52.98c-12.09,12.1-28.34,21.27-44.6,25.45-25.84,6.26-57.94,2.92-84.62,2.92h-130.47c0,7.51-1.25,19.61,3.75,25.03,14.59,14.6,37.51,11.68,56.27,11.68h203v49.22h-164.65c-26.26,0-56.69,2.92-82.53-1.67-13.34-2.09-27.51-8.34-38.35-16.27-14.59-10.43-25.43-23.78-28.34-42.13-2.92-17.94-1.25-37.96-1.25-56.31,0-21.69-2.08-45.89,2.08-66.74,2.08-9.59,6.25-18.35,12.09-26.28,15.01-20.02,36.26-32.12,60.44-36.29h.83l17.51-.83h105.04ZM1819.43,457.68c-16.26,2.5-25.43,10.01-35.85,22.53v39.63h187.16c13.34-.42,24.18-.83,33.76-11.26,5.42-5.84,8.34-13.35,8.34-21.27s-5-14.6-10.42-19.61c-5-4.17-10.84-7.51-17.09-8.76-17.92-3.34-38.77-1.25-56.69-1.25h-109.21ZM1770.24,281.65h-158.81c-40.85,0-84.62,3.75-124.22-5.84-6.67-5.84-18.34-9.18-25.84-15.02-14.59-11.26-26.68-30.45-29.18-48.81-2.5-20.02,3.33-40.88,15.84-56.73,10.42-12.93,27.09-24.61,42.93-29.2,21.26-6.26,44.6-4.59,66.28-4.59h104.63c17.51,0,36.68,1.67,54.19-.83.42-1.25.83-2.09.83-3.34,0-7.93-4.59-15.43-10-20.86s-11.67-9.18-19.17-10.85c-20.42-4.17-46.27-1.67-67.11-1.67h-132.97v-33.37c0-5.42.83-11.26-2.08-15.85l1.25-.42h135.05c25.01,0,54.61-2.92,78.78,2.5,16.67,3.75,33.35,12.93,45.85,25.03,9.59,9.59,17.92,22.53,21.26,35.87,5.42,21.69,2.5,48.39,2.5,70.91v113.05ZM1717.31,170.68l-206.33.83h.42c-9.59,4.17-20.43,9.59-24.59,20.02-2.92,6.26-2.92,13.77,0,20.02,4.17,8.76,11.25,14.18,20.01,17.52,17.51,6.67,46.69,2.92,65.86,2.92h144.64v-61.32ZM1378.42,257.03c-10,14.18-24.59,22.11-41.27,25.03-1.25,0-2.08.42-3.33.83-14.17,1.25-28.76-.83-40.85-7.93-15.84-9.59-30.01-28.37-42.93-42.13l-90.04-96.78c-16.26-17.52-32.51-37.96-50.85-53.39-4.59,0-8.34-.83-12.51,1.25-3.75,9.18-1.25,173.53-1.25,197.73h-52.94v-133.07c0-22.11-2.08-46.72.83-68.41.83-6.26,2.92-12.51,6.25-17.94,9.17-16.27,25.43-23.78,42.1-28.78l-.83-.42c16.26-2.5,32.1-.83,46.27,7.93,10,6.26,17.92,15.43,25.84,23.78l32.51,35.04,94.62,101.37c9.17,10.01,21.26,26.7,32.93,32.95,3.75,0,6.67-.83,10.42-2.5,2.08-6.26,1.25-13.35,1.25-20.02V34.28h52.94v139.33c0,19.61,2.08,42.55-.42,61.74-1.25,7.51-4.58,15.43-8.75,21.69ZM1129.57,408.87l.42.42,229.68-1.25v48.81h-145.89c-23.76,0-52.52-2.92-75.86,1.67-11.25,2.5-21.26,7.51-29.6,15.85-15.42,15.43-16.26,30.87-16.26,51.73,0,22.53-1.67,44.22,15.42,61.32,20.43,20.44,43.35,17.94,69.61,18.35h182.16v49.22h-150.06c-25.43,0-54.61,2.5-79.62-1.67-12.51-2.09-25.43-7.09-36.26-13.35-23.76-14.18-42.52-35.87-49.6-62.99-3.75-13.77-3.75-27.95-3.75-42.55,0-27.95.83-52.56,15.84-77.17,16.26-27.11,44.18-40.88,73.78-48.39ZM1440.53,423.47c7.92-4.17,15.84-8.34,24.18-10.85,26.26-7.51,56.27-4.59,83.37-4.59,20.01,0,42.1-1.67,61.69,1.25,25.43,3.75,46.27,15.43,64.19,33.37,12.09,12.51,20.84,27.53,25.01,44.63,5.42,21.69,3.33,46.72,3.33,68.83v98.86h-51.69v-91.77c0-10.85,2.08-25.03,0-35.04v-12.93c0-15.43-5-29.2-15.84-40.05-23.34-22.94-55.02-17.94-84.62-17.94s-69.61-5.84-93.37,18.35c-7.5,7.51-11.67,15.85-14.17,25.86-3.33,16.27-1.67,36.29-1.67,52.98v101.37h-52.1v-197.73c0-31.7,2.5-65.07,0-96.36,0-2.09-1.25-4.17-2.5-6.26l-.42-.83h54.6v68.83ZM2367.15,408.04h73.78c17.09,0,35.01-.83,51.69,2.5,21.26,4.59,39.6,15.43,55.02,30.87,12.5,12.51,21.26,28.37,25.84,45.89,5.42,22.11,3.75,47.55,3.75,70.08v97.61h-52.52v-103.87c0-16.27,2.08-36.71-1.25-52.56-2.08-9.18-7.09-17.1-13.76-23.78-6.25-6.26-14.59-12.51-22.93-15.02-14.17-4.59-30.85-3.34-45.43-3.34h-88.37v197.73h-52.1v-197.73h-150.48v184.38c0,3.75.83,9.59-.83,13.35h-51.69v-224.84c0-5.84.83-13.35-1.25-18.77l-1.25-2.5h271.77Z"></path>
  <path d="M176.37,31.52c-9.65,5.86-19.3,11.31-28.11,18.43-8.48,7.06-18.63,20.93-28.47,37.27-11.71,20.01-19.66,43.35-24.26,65.86-5.02,26.68-3.76,53.35-3.76,80.44v96.7c.42,0,1.67,339.7,1.67,339.7H21.91l-1.25-340.54v-95.87c0-24.18-3.35-53.35,3.35-76.69,13.01-42.44,49.45-75.98,87.58-97.85,0,0,13.53-9.28,64.79-27.45Z"></path>
  <path d="m237.4 23.47c-26.62 25.86-29.97 35.25-29.97 35.25-21.28 31.71-28.37 70.51-32.55 108.05-2.09 20.44-1.25 41.72-1.25 62.16v100.96l1.67 340.02h-68.01l-1.67-336.68v-102.21c0-18.36-1.25-37.97 0-56.32 1.67-18.36 5.84-37.55 12.1-54.65 12.52-34.21 36.72-65.08 70.1-80.52 0 0 13.42-7.68 49.58-16.06z"></path>
  <path d="M257.98,169.7v117.65c.42,0,2.5,382.57,2.5,382.57h-72.39l-1.66-488.95c2.48-55.06,17.25-107.25,58.13-145.55-.05-.05-.11-.1-.15-.15h.32c-10.38,9.7,7.89-8.74,13.71-8.74-.25,38.98-.63,62.59-.45,143.18Z"></path>
  <path d="M259.3,26.94c74.63,60.01,98.39,146.68,117.16,236.69,17.51,85.01,26.68,174.6,57.95,255.86,16.68,43.75,39.19,83.34,75.46,114.18,16.26,13.75,34.6,24.59,54.2,32.09,8.34,3.33,16.68,5,24.6,9.17-70.46-9.58-130.5-27.09-175.11-86.26-28.77-37.5-42.94-86.26-55.03-131.26l-33.35-153.35-28.35-137.1c-9.17-43.75-17.93-92.51-38.36-132.51-.08-2.58,0-5.25,0-7.92l.83.42Z" fill="#231f20" stroke-width="0"></path>
  <path d="m274.9 22.52 32.99 7.92c97.29 27.5 131.11 125.41 149.9 214.16l24.22 139.16c8.35 51.25 18.79 105.83 36.74 154.58 15.03 40.42 36.74 78.33 68.48 107.91 7.52 7.08 20.88 12.92 25.47 21.67-7.52-4.17-19.21-5.42-27.56-7.92-25.05-7.5-49.69-20.83-69.31-37.92-48.02-41.25-71.82-102.08-87.68-161.25-15.87-60-25.05-121.25-36.74-182.5-12.53-65-28.81-133.75-63.47-191.25-15.03-24.58-33.4-43.75-53.45-64.16l0.42-0.42z"></path>
  <path d="M643.17,642.21c2.04,6.14,3.16,16.93,1.3,22.12l-1.26,2.5-.84,1.25,1.38.25-1.21.58s-4.47-2.56-17.5-10.01c-13.75-8.35-27.5-19.61-38.34-31.29-58.34-62.17-74.59-155.21-88.34-236.16l-22.5-128.93c-10.42-56.75-25.42-118.5-57.92-166.48-17.5-25.87-37.09-44.23-63.76-60.5-8.75-5.42-20.84-12.1-31.25-14.19h-.42c1.67-.42,2.92-.83,4.58-.83,9.58,0,20,3.34,29.17,5.42,48.34,10.43,90.43,30.04,125.85,64.67,114.6,111.82,75.84,341.31,127.51,486.09,8.33,23.37,19.59,43.39,32.92,64.26.15.33.37.76.62,1.25Z"></path>
  <path d="M644.71,640.9c-1.3-64.39-.63-579.5-2.08-615.96l77.18-.42s.09,459.36.42,516.99c-2.09,26.27-6.28,55.87-18.42,79.63-12.14,24.18-30.14,38.36-54.83,48.78l-4.6-.83.84-1.25,1.26-2.5c2.09-5.84.42-18.76-2.09-24.18l2.33-.25Z"></path>
  <path d="M797.8,24.52c-.28,281.82.09,484.18.31,510.05-.84,12.5-3.77,22.92-8.37,34.17-18.83,46.25-55.66,70.01-100.02,89.18,20.09-21.25,29.71-43.34,35.57-71.67,7.53-37.09,7.11-72.92,7.11-110.43l-1.65-451.29h67.04Z"></path>
  <path d="M880.93,409.51c0,25.83.84,51.66-3.34,77.5-3.76,22.08-12.11,43.75-22.96,63.33-22.54,39.58-56.36,70-95.61,92.5-13.78,7.92-29.23,15.83-44.67,20l-9.6,2.08c13.36-6.67,27.14-12.92,39.66-21.67,29.23-20.42,52.27-50.95,63.88-84.16,7.48-21.67,5.01-56.87,5.01-83.33l-.48-451.23h67.04c0,200.93,1.08,384.99,1.08,384.99Z"></path>
</svg>
